<svg xmlns="http://www.w3.org/2000/svg" viewBox="0 0 738.2 167.2"><path d="M738.1 104.2a9.3 9.3 0 0 0-9.3-9.3 9.2 9.2 0 0 0-8 4.6l-24.5 37.2c-3.7 6.2-13.6 11.9-20.9 11.9h-37.8a9.3 9.3 0 0 0 0 18.6h37.8c13.8 0 30-9.2 36.9-21.1l24.5-37.2a9.5 9.5 0 0 0 1.3-4.7" fill="#96c93d"/><path d="M0 63a9.3 9.3 0 0 0 9.3 9.3 9.2 9.2 0 0 0 8-4.6l24.5-37.1c3.7-6.3 13.6-12 20.9-12h37.8a9.3 9.3 0 1 0 0-18.6H62.7c-13.8 0-30 9.3-36.9 21.1L1.3 58.3A9.5 9.5 0 0 0 0 63" fill="#009abe"/><path d="M288.4 7.7h-4.8c-3.4 0-4.1.6-4.8 4-3.2 16.1-6.4 32.2-9.5 48.3-2.9 14.5-5.7 29-8.5 43.5-.5 2.3.2 3.1 2.5 3.2h9.3c2.2 0 3.4-1.1 3.8-3.3 3.1-15.6 6.1-31.2 9.2-46.7a6 6 0 0 1 2.9-4.6 25.6 25.6 0 0 1 14.7-4.6l3.1.2c5.2.5 8.5 3.2 9.2 8.4a31.5 31.5 0 0 1-.4 10.6c-2.2 12.3-4.7 24.5-7 36.8-.5 2.4.1 3.1 2.6 3.2h9.3c2.1 0 3.2-1 3.6-3.2 1.6-7.9 3.3-15.7 4.7-23.7s3.1-15.6 3.3-23.4c.3-13.5-8.2-20.8-21.3-21.6h-2.2a34.6 34.6 0 0 0-19.3 5.8c.4-1.8.6-3.1.9-4.4 1.6-8.4 3.3-16.8 4.9-25.1.5-2.5-.3-3.4-2.9-3.4h-3.3M85.2 34.8c-8.5 0-16.3 3.2-23 9.2-12.8 11.2-17.6 25.7-16.1 42.3.9 10.2 7.9 18.5 17 20.8a36.1 36.1 0 0 0 9.1 1.2 33.2 33.2 0 0 0 16.8-4.6l1.6-.9c-.1 3.5.3 3.9 3.4 3.9h7.3c3.8 0 4.5-.6 5.3-4.3 4.1-20.9 8.1-41.9 12.2-62.8.5-2.3-.3-3.2-2.6-3.2h-8c-3.5 0-4.3.6-5.1 3.5-3-1.3-5.9-3.2-9.1-3.9a33.7 33.7 0 0 0-8.8-1.1m-7.8 60.6a22.2 22.2 0 0 1-5.1-.6c-6.3-1.4-10.1-6.4-10.4-13.4a22.5 22.5 0 0 1 0-2.6c.5-10 2.8-19.4 10.8-26.4a20.2 20.2 0 0 1 13.5-4.9 19.5 19.5 0 0 1 11.6 3.6c1.8 1.4 2.8 2.8 2.2 5.4-2.3 10.3-4.2 20.8-6.3 31.1a4.2 4.2 0 0 1-1 2 24.1 24.1 0 0 1-15.3 5.8M388.4 34.8h-3.5c-10.2.6-19.4 3.8-26.8 11-11 10.8-15.2 24.2-14.2 39.2.7 9.7 5.6 17 14.9 20.5a47.3 47.3 0 0 0 16.4 2.9 59.9 59.9 0 0 0 21.3-4.3c1-.4 1.9-2 2.2-3.1a47.7 47.7 0 0 0 .6-7.6c.1-1.6-.2-2.4-1-2.4a4.2 4.2 0 0 0-1.8.6 42 42 0 0 1-18 3.9l-5.1-.2c-8.8-.9-14.9-5.7-13.7-17.6h10.1c7.1 0 14.2-.3 21.1-2s14-4.6 18.6-10.8c6.8-9.1 6.4-22-7.3-27.7a36.5 36.5 0 0 0-13.8-2.4m-14.2 30h-11.7c3.5-11.3 12-17.1 22.2-17.1a29.4 29.4 0 0 1 6.5.7c3.9.9 6.1 3.2 6.4 6.2s-1.5 6.2-5 7.6a36.3 36.3 0 0 1-10.2 2.5c-2.7.2-5.5.2-8.2.2M705.2 36.3a5 5 0 0 0-4.6 2.7l-24.1 41-3.7 6.1c-1.1-5.9-2-11.2-3-16.5-1.9-10.3-3.8-20.6-5.6-30.8-.3-1.5-.9-2.4-2.4-2.4H650c-2.3.1-2.9 1.1-2.5 3.3l13.2 65a3.9 3.9 0 0 1-.5 2.8c-4.2 7.4-8.5 14.7-12.8 22-1.5 2.6-1 3.4 2 3.4h10.1a4.8 4.8 0 0 0 4.5-2.8c8.4-14.4 16.8-28.6 25.2-42.9l27.9-47.4c1.6-2.7 1.1-3.4-2-3.4h-9.9M637 7.7h-.5c-12 .1-21.4 6.6-25.6 17.7-1.3 3.5-2.1 7.2-3.2 10.9h-9.5a3.6 3.6 0 0 0-3.9 3.2c-.4 1.9-.8 3.9-1.1 5.8s0 3.5 3 3.6h8.9a14.6 14.6 0 0 1 0 2.1l-4.5 22.8q-5.4 28.1-11 56c-.4 2.1.3 3 2.5 3h9.4a3.3 3.3 0 0 0 3.7-3.2c.5-2.7 1.1-5.4 1.6-8.1 4-20.2 7.9-40.3 11.9-60.5.8-4 1.7-8.1 2.5-12.2h15c2.8 0 3.6-.7 4.1-3.5s.7-3.6 1.1-5.4 0-3.7-3.1-3.7h-14.8a70.2 70.2 0 0 1 2-7.3c2.1-6 5.7-8.5 12.1-8.5h.3a26.1 26.1 0 0 1 4.8.5h1c1.5 0 2.5-.7 3-2.5s1.4-4.5 2.1-6.7.2-3.4-2.5-3.7-6.2-.5-9.3-.5M466.5 34.7a23.2 23.2 0 0 0-5.3.5c-5 .9-9.7 2.9-14.5 4.3-.1-2.8-.4-3.2-3.9-3.2h-7.3c-3 .1-4.2 1-4.7 3.9s-.9 4.7-1.3 7l-11.1 56.5c-.4 2 .3 2.9 2.5 3h9.3c2.3 0 3.5-1.2 3.9-3.4 3-15.6 6.1-31.2 9.1-46.7a6.9 6.9 0 0 1 3-4.6 25.8 25.8 0 0 1 14.6-4.4h3.2c5.9.7 9.4 4.6 9.5 10.4a51 51 0 0 1-.7 8.7c-2.3 12.3-4.7 24.5-7.1 36.7-.4 2.3.2 3.1 2.5 3.2h9.3a3.4 3.4 0 0 0 3.8-3.2c2-10.3 4.2-20.6 6.1-31a95.1 95.1 0 0 0 1.9-16.9c0-8.4-3.6-15.2-11.9-18.7a27.6 27.6 0 0 0-10.9-2.2M146.7 36.3h-4.5c-3.6.1-4.5.8-5.1 4.3-1.7 8.5-3.4 17-5 25.5s-3.3 14.5-2.8 22.1c.8 11.7 8.7 19.3 20.5 20h2.5a34.8 34.8 0 0 0 19.5-5.5c-.1 3.4.5 4 3.8 4h7.7c2.9 0 3.8-.7 4.4-3.6l8.1-41.3 4.2-21.4c.7-3.3.1-4-3.2-4.1h-7.7c-3 .1-4.2 1-4.7 3.7l-9.3 47.5a4.7 4.7 0 0 1-1.8 2.8 24.8 24.8 0 0 1-15.7 5.3h-.1c-9-.1-13.4-5-12.4-13.9.4-3.9 1.1-7.8 1.9-11.7 1.9-10 3.9-20.1 5.9-30.2.5-2.6-.2-3.4-3-3.5h-3.2M231.2 15.3a3.4 3.4 0 0 0-3.4 2.7 28 28 0 0 0-.6 2.8c-1 5.2-2 10.3-3.1 15.5h-7.7c-3.2 0-4.2.8-4.9 4s-.7 3.4-1 5.1.3 3.4 3 3.5h7.9a7.1 7.1 0 0 1 0 1.5c-1.5 7.7-3.1 15.4-4.5 23.1s-3.2 13-2.7 19.9 3.9 11.3 10.3 13.4a35.5 35.5 0 0 0 10.7 1.5 80.9 80.9 0 0 0 8.5-.6c2.2-.2 3-1.6 3.2-3.5s.3-4.6.4-6.9-.2-2.4-1.7-2.4h-.9c-2.2.2-4.4.4-6.7.4h-2.4a4.9 4.9 0 0 1-5-5 29 29 0 0 1 .3-7.8c1.9-10.5 4-21 5.9-31.5.3-1.6 1-2.1 2.6-2.1H255c2.4 0 3.7-.9 4-3.3s.7-3.1 1-4.7c.8-4.3.6-4.6-4-4.6h-16.2c1.2-6.1 2.4-12 3.5-17.9.5-2.1-.3-3-2.4-3h-9.7M529.4 15.3H525c-2.7.1-3.6.7-4.2 3.5-1.2 5.8-2.3 11.6-3.5 17.5h-8.5c-2.1.1-3.5 1-3.9 3.1l-1.2 5.6c-.6 3.1.1 3.9 3.3 3.9h7.5a8.3 8.3 0 0 1 0 1.6c-1.5 7.7-3.1 15.3-4.5 23s-3.2 13.1-2.7 19.9 3.9 11.3 10.2 13.3a32.9 32.9 0 0 0 10.8 1.6 81 81 0 0 0 8.6-.6c2.1-.2 2.9-1.6 3.1-3.4s.4-4.7.5-7.1-.3-2.3-1.7-2.3h-1.1c-2.1.2-4.3.3-6.4.3h-2.6a4.9 4.9 0 0 1-5-4.9 34.2 34.2 0 0 1 .3-7.8c1.9-10.5 4-21.1 6-31.6.3-1.5.9-2.1 2.4-2.1h15.5c2.9 0 3.7-.7 4.3-3.4s.6-3.4 1-5.1c.7-3.5.2-4.1-3.4-4.1H533c1.1-6 2.2-11.8 3.4-17.5.5-2.7-.1-3.4-2.9-3.5h-4.1M575.9 36.3h-4.6c-2.7 0-3.7.8-4.2 3.5l-9.6 48.4c-.9 4.8-1.9 9.6-2.8 14.4-.6 3.1.1 3.9 3.1 4h7.5c3.7 0 4.4-.6 5.1-4.2l12.3-63c.5-2.1-.3-3.1-2.6-3.1h-4.2M581.3 7.7c-7.4 0-11.8 4.7-11.4 12.5.2 2.9 1.7 4.9 4.6 5.5l3.4.3c5.5 0 9.7-2.8 10.9-9.6s-1.4-8.7-7.4-8.7h-.1M722.1 44.3a7.6 7.6 0 0 1 .3-2.1 6.4 6.4 0 0 1 .8-1.9 7 7 0 0 1 1.3-1.7 4.8 4.8 0 0 1 1.6-1.2 6.4 6.4 0 0 1 1.9-.8 7.6 7.6 0 0 1 2.1-.3 7.8 7.8 0 0 1 2.2.3 6.4 6.4 0 0 1 1.9.8 4.8 4.8 0 0 1 1.6 1.2 10.9 10.9 0 0 1 1.3 1.7 10.8 10.8 0 0 1 .8 1.9 7.6 7.6 0 0 1 .3 2.1 7.8 7.8 0 0 1-.3 2.2 15.4 15.4 0 0 1-.8 1.9 10.1 10.1 0 0 1-1.3 1.6 7 7 0 0 1-1.6 1.3l-1.9.8a7.8 7.8 0 0 1-2.2.3 7.6 7.6 0 0 1-2.1-.3l-1.9-.8a7 7 0 0 1-1.6-1.3 6.5 6.5 0 0 1-1.3-1.6 7.7 7.7 0 0 1-.8-1.9 7.8 7.8 0 0 1-.3-2.2zm1.2 0a6 6 0 0 0 .6 2.7 5.5 5.5 0 0 0 1.4 2.2 8.6 8.6 0 0 0 2.2 1.5 7.5 7.5 0 0 0 2.6.5 7.6 7.6 0 0 0 2.7-.5 10.7 10.7 0 0 0 2.2-1.5 5.5 5.5 0 0 0 1.4-2.2 6 6 0 0 0 .6-2.7 5.7 5.7 0 0 0-.3-1.8 12.2 12.2 0 0 0-.7-1.7l-1-1.4-1.4-1a5.6 5.6 0 0 0-1.6-.7 5.8 5.8 0 0 0-1.9-.3 5.7 5.7 0 0 0-1.8.3 5.6 5.6 0 0 0-1.6.7 7.1 7.1 0 0 0-1.4 1l-1 1.4a6.1 6.1 0 0 0-.7 1.7 5.7 5.7 0 0 0-.3 1.8zm10.5-1.8a3 3 0 0 1-.5 1.5 2.3 2.3 0 0 1-1.3 1l2.1 3.5v.3l-.3.2h-1.7l-.2-.2-1.9-3.5h-1.1v3.2c0 .2 0 .3-.1.4h-1.9c0-.1-.1-.2-.1-.4v-8.4c0-.1.1-.2.1-.3h3.2l1.5.2a3.3 3.3 0 0 1 1.2.5 3.1 3.1 0 0 1 .7.9 2.1 2.1 0 0 1 .3 1.1zm-2.1 0c0-.2-.1-.3-.1-.5l-.3-.3-.5-.2h-1.9v2.2h1.1a2.1 2.1 0 0 0 1.3-.3 1.2 1.2 0 0 0 .4-.9z" fill="#fff"/></svg>