<svg xmlns="http://www.w3.org/2000/svg" viewBox="0 0 409 205.5"><title>melting-pot-logo</title><path d="M231.7,6.4c1.2,2.4,2.6,6.2.5,8.7s-5.6,2.5-8.5,3.4a1.1,1.1,0,0,1-.1-.5c2.2-1.5,4.7-3.6,5.1-6.2a11.3,11.3,0,0,0-6.4-9.9A7.8,7.8,0,0,0,214,4.7c-1.6,2.8-1.1,6.5-.6,9.6,1.4,6.1,5.9,11.2,11.2,14.9,3.4,2.6,7,5.8,7.1,10.2-.3,6.7-6.7,11.4-11.5,15.5-2.3,1.2-4.3,3.4-6.7,4.6v-.3c4.6-5.2,9-10.5,10.9-16.9.8-3.4.9-7.7-.9-10.8-5.5-6.4-15.5-7.2-18.4-15.9a12.3,12.3,0,0,1,5-12.9C213.3.9,216.9-.5,221,.2A14.4,14.4,0,0,1,231.7,6.4Z" style="fill:#fff"/><path d="M199.5,15.3c-1.1,4-1.5,8.8-.2,12.8,3.6,7,11.3,9.3,15.7,15.7,1.2,3.8-.2,7.7-1.8,10.9h-.4c1-3.6,1.4-8.1-.7-11.2-3.9-4.5-9.8-4.8-14.9-6.9-3.1-1.3-7.9-2.5-8-6.8.7-6.1,5.1-11,9.9-15C199.4,14.7,199.5,15,199.5,15.3Z" style="fill:#fff"/><path d="M241.6,19c-.1,1.2-1,2.3-1.4,3.5s-1.8,5.4-.5,8,6.3,7.3,3.5,11.9-7.7,6.8-12,9.2c.6-1.3,2.4-1.8,3.4-3.2,3.7-3.5,5.8-7.9,5-13-.5-3-3.7-4.4-5.6-6.4s1.8-5.5,3.7-7.6A17.8,17.8,0,0,1,241.6,19Z" style="fill:#fff"/><path d="M101.3,41.7c3.5-.2,7.1,0,10.5-.2,1.8.5-.2,2.3,0,3.6s.1,2.4-.7,3.2-1.1-.6-1.6-1.1c-2.3-2.3-5.3-2.7-8.3-3.4H99.9l-.2,1.8V74.8c.1.8,1.5.8,1.1,1.7s-2.8-.5-4.2.1a49.2,49.2,0,0,0-6.6.1A.5.5,0,0,1,90,76c.3-.5.9-.5,1.1-1l-.3-30.9c-1.5-1-3.6-.2-5.2,0a10.8,10.8,0,0,0-5.4,4.1h-.6c-1-1.1-.6-2.8-1.1-4.1s-1.6-2.2-.3-2.6Z" style="fill:#fff"/><path d="M122,41.6c.2.1.1.3.1.5-2.2.6-.5,3.4-1.1,5s-.2,3.4.1,5l.4.3c5.3-1.4,10.6.1,13.9,4.6s2.3,12.1,2.7,18.3c.4.5,1.3.5,1.1,1.3l-.3.3a36.4,36.4,0,0,0-8.1-.2c-.3-.1-.3-.4-.3-.7l1.1-.7c-.3-6,1.2-13.4-2.1-18.5a7.9,7.9,0,0,0-8-2.7,3.9,3.9,0,0,0-.4,3.2c.1,5.9-.1,12.1,0,17.9.5.5,1.7.3,1.3,1.3a2.5,2.5,0,0,1-1.9,0c-2.4,0-4.6.3-6.9.1-.3-.1-.1-.4-.2-.6l1.3-.8V42.9c-.3-.5-1.3-.5-.9-1.2H122Z" style="fill:#fff"/><path d="M195.5,48.9c-1.7,2.1-5.6,2.7-5.5,6.1s5.3,5.8,8.6,7.2c12.7,4,27.7,4.1,40.9,1.2,4.1-1.5,9.1-2.5,11.3-6.9.7-1.5-.2-3-1-4.2s-2.6-1.8-3.8-2.8v-.3a21.5,21.5,0,0,1,6.3,2.6c3.3,1.8,5.3,5.1,7.6,7.7,2.8-1.4,5.5-3.1,8.4-4.1,5.1-.8,12.8-5.5,16.4,1.2a7.8,7.8,0,0,1,.2,7.3,7.2,7.2,0,0,1-5.5,3.6c-2.9.5-5.4-1-7.1-3.4-.6-.7-.5-1.8-1.2-2.5a11.8,11.8,0,0,0-9,2.8c-.7,1.6-.2,3.4-.4,5.2-1.3,7.7-9,13.6-15.7,16.6a45,45,0,0,1-12.6,3.9,73.1,73.1,0,0,1-21.4.8,61.7,61.7,0,0,1-19.1-5.4c-6.7-3.5-14.5-9.7-14.8-17.9-.3-2.7.8-5,1.6-7.3a21.7,21.7,0,0,1,12.5-10.6A8,8,0,0,1,195.5,48.9Z" style="fill:#fff"/><path d="M18.2,85.8v.4c-.8.5-2,.2-2.5,1,1.1,2.5,3,4.6,4.2,7a177.2,177.2,0,0,1,11.3,23.7c1.1,2.6,2.2,5.1,3.4,7.7h.2c5.6-10.2,10.2-20.8,15.4-31.2L53.3,88c-.1-1.3-4-1-1.8-2.7,5.7.3,11.4.3,17,.2a1.7,1.7,0,0,1,.1.7c-.6.8-1.8.5-2.1,1.5.1,9,.2,18,.2,26.4-.5,1.9.4,4.1,0,5.8v10.7l.2.5a49.5,49.5,0,0,0-.1,7.7c.5.6,2.2.4,1.7,1.7s-2.1-.2-3,0c-4.3-.4-8.8.5-13.1.2-.4-.1-.2-.6-.1-.9s1.6-.7,1.8-1.5V107.9c-.2-4.6.1-9.2-.3-13.6l-.9.9C47.2,107,41.8,119,35.7,130.7l-5.1,10.4a1.1,1.1,0,0,1-1.1.4c-4.7-7.8-7.5-16.4-12.8-23.9-1.1-2.6-3.2-4.8-3.9-7.6-2.2-4.4-4.1-8.8-6-13.3a.3.3,0,0,0-.4.4c0,6.9-.5,13.9,0,20.8s1.4,13,4.1,18.6c.9,1.7,2.6,2.5,4.1,3.5s0,.4,0,.6-1.7.1-2.6.1c-4-.5-7.9,0-11.8,0-.1-.2-.3-.6-.1-.8s1.5-.5,1.8-1.5c-.3-12.7,1-25.4,1.8-37.9.3-4.4,1.6-8.8.4-13.2-.4-.8-1.9-.4-1.5-1.5l.5-.4c4.7.1,10,.1,14.5-.1Z" style="fill:#fff"/><path d="M122.7,85.2c.3.1.2.6.1.8s-1.8.6-1.6,1.8-.1,2,0,3.1c.2,15.6.1,31.8.3,47.2.5.9,2.2.8,1.8,2.2l-.5.5c-4.3-.4-8.2,0-12.4-.3-.4-.2-.3-.9-.2-1.2s1.3-.5,1.5-1.3V117.5l-.3-30.4c-.5-.7-2.6-.4-1.9-1.9l.7-.3C114.2,85.6,118.7,84.7,122.7,85.2Z" style="fill:#fff"/><path d="M166.8,85.4c.4,0,.2.6.2.9-2.6,3.6-3.9,7.8-6.3,11.4-1-.1-1-1.3-1.7-1.9a43.5,43.5,0,0,0-4.3-8.3c-.2-.7-.7-1.3-.4-2l.6-.3C159,85.1,162.8,85.3,166.8,85.4Z" style="fill:#fff"/><path d="M144.1,85.4a.8.8,0,0,1,.4,1c-.6.7-1.8.4-2.2,1.3v12.4c1.6,1,3.9.3,5.5-.1s1.7-.9,2.5-.3-.7,2.7-.7,4.1-.6,1.1-1.3,1.3-3.6-1-5.6-1.1l-.4.5c.4,11.8-.3,22.2.3,33.5.9,1,3.3,1.1,3,2.9s-2.3.1-3.5.2c-3.8-.8-7.8.1-11.6,0-.3-.3-.2-.7,0-1.1s1.9-.5,2.2-1.8V116c-.1-4.5,0-8.7-.1-13.2-.7-.9-1.3.3-1.9.5l-3.4,2.4c-.5.2-.8-.3-.8-.7s-.6-4,1.2-4.7,4.3.8,5-1.3l-.2-11.4c-.3-1.3-2.7-.1-2-1.9,2.4-.5,5,.4,7.5.1S142,85.5,144.1,85.4Z" style="fill:#fff"/><path d="M387.3,86.1c.3.1.7.3.6.7s-1.9.3-2.2,1.4v12.3c.7,1.3,2.8.6,4,.5s2.5-1,3.9-.9c.7,1.6-1,2.7-.7,4.3a2.2,2.2,0,0,1-2.6,1c-1.4-.1-2.6-1.1-4.1-.8l-.3.5c-.1,10.8,0,22.5.1,33.5,1,1,2.9.9,3,2.7l-1.3.3a63.7,63.7,0,0,0-13.8-.1c-.3-.1-.3-.5-.2-.7s1.9-.8,2.5-1.9V103.4a.9.9,0,0,0-.5-.7c-1.9.8-3.5,2.3-5.1,3.4s-.6-.3-.7-.5-.3-2.9.2-4.1,5.6.9,6-2.2V88c-.2-1.2-3.2-.4-1.7-1.8C378.7,86.2,382.8,86.6,387.3,86.1Z" style="fill:#fff"/><path d="M207.9,112.9c1.4,2.2,1.3,5.1,2.1,7.6,1.1,6,.4,12.4.5,18.5.5,1,2,.5,1.9,1.7l-.7.3c-4.3.2-8.5-.1-12.7-.1-.6-1.2,1.6-1.2,1.8-2.4-1.3-11.6,2.1-26.4-8.3-34.1-2.8-1.4-6-.5-8.3,1.2l-1.1,1.1c-.1,10.7-.1,21.6.2,32.3.7.5,2.2.7,1.9,1.8-4.2.1-8.5.4-12.9.2a.6.6,0,0,1-.1-1c1.3-.5,1.1-1.9,1.2-3V104.3c-.5-.8-2-.1-2.6-1.1s-.4-.7-.1-1,3.1.4,4.8,0,4.8,0,7.3-.2c.7.3.2,1.1.9,1.5,5.1-3.4,12.4-2,17.1,1.2A22.8,22.8,0,0,1,207.9,112.9Z" style="fill:#fff"/><path d="M167.4,102c.5.3.1.8-.1,1.2s-1.5.6-1.5,1.5l.2,24.9.2,9c.5.8,2.3.6,1.7,2l-.5.3a92.3,92.3,0,0,0-12.9.1.9.9,0,0,1-.3-1.1c.3-.9,1.6-.1,1.6-1.1V104.5c-.6-1.1-2.8-.9-2-2.4l.6-.3C158.4,102.2,163.1,101.8,167.4,102Z" style="fill:#fff"/><path d="M408.4,138.9a6.2,6.2,0,0,0-6.2-3.5c-1.9.5-4.1,1.8-4.7,3.8a7.8,7.8,0,0,0,.7,6.5c1.3,1.2,2.8,2.6,4.8,2.4a6.7,6.7,0,0,0,5.4-3.1A7.6,7.6,0,0,0,408.4,138.9Zm-1.9,6.3a4.9,4.9,0,0,1-5,1.4,5.6,5.6,0,0,1-2.9-3.5c-.7-2.3.3-4.2,1.9-5.8s5.6-.7,6.7,2.1A5.8,5.8,0,0,1,406.5,145.2Z" style="fill:#fff"/><path d="M405.5,141.3a2,2,0,0,0,.2-2c-.8-1.8-3.1-1-4.7-1.2l-.3.2c.1,2.3-.1,4.6.1,6.9a.4.4,0,0,0,.6.2c.3.1.5-.2.6-.5s-.7-2.2.4-2.6,1.4,3.6,3.4,3C406,143.9,402.6,142.3,405.5,141.3Zm-1.6-.3c-.7.1-1.8.4-2.1-.4s.1-1.2.6-1.4a2.4,2.4,0,0,1,2,.5C404.4,140.3,404.5,140.9,403.9,141Z" style="fill:#fff"/><path d="M218.3,162.2a205.5,205.5,0,0,0,23.8,7.6l2.3.5c7,1.5,14.1,2.8,21.2,3.8,0,.7-.9.4-1.3.7-10.7,2.4-21.3,2.3-32.4,1a99.8,99.8,0,0,1-19.2-4.7c-8.8-2.7-17.6-6.1-27.5-5.7a123.8,123.8,0,0,0-19.4,2c-3.1.3-6.1,1.2-9.2,1.2v-.2c13.3-4.8,27.1-8.5,41.8-9.7A50.9,50.9,0,0,1,218.3,162.2Z" style="fill:#fff"/><path d="M163.8,70.6c.3-.4,1.1-.1,1.1-.9s-2.6-1.6-3.5-3.1c-.4.1-.7-.1-.9.3.1,2,0,4.2-1.3,5.8a7.3,7.3,0,0,1-7.6,2.4c-3.4-.9-4.4-4.5-4.7-7.6s-.6-3.9.6-5.2c4,.1,8.3.2,12,.1,1.5-.2,3.5.6,4.3-.8s-1.2-2.8-1.8-4.1-3-4.2-5.3-4.8a12.2,12.2,0,0,0-12.2,2,12.8,12.8,0,0,0-4.3,14.2,13.6,13.6,0,0,0,11,7.9C156.2,77,161.6,75.4,163.8,70.6Zm-16.2-13c.7-1.8,2.1-3.9,4.2-4a4.5,4.5,0,0,1,4.5,2.7c.5,1.1,1,2.7.3,3.9a16.8,16.8,0,0,1-4.5.2h-4.7C147,59.6,147.5,58.5,147.6,57.6Z" style="fill:#fff"/><path d="M329.3,114.4c3-4.3,2.3-11-.3-15.2-3.5-6.7-10.6-8.6-16.5-11.2-10.6-2.5-22.8-2.1-34.2-2.3l-.5.2c-.8,1,.9,1.2,1.2,1.9l.2,2.8v47.9c-.4,1-1.5,1-2.1,1.5a.6.6,0,0,0,.2.7c5.5-.1,10.7,0,16.5.1l.4-.2c-.1-1.3-1.7-.8-2.2-1.6V128.3l.4-.6,4.1-.2a54.3,54.3,0,0,0,19-2.7C320.5,122.3,326.3,119.9,329.3,114.4Zm-32.2,10.3h-4.4l-.2-.3c.2-12-.2-23.8,0-35.8.7-.5,1.7-.2,2.5-.2,8.9-.1,17.4,4.4,20.9,12.7,2,4.7,2,11.2-1.1,15.4C310.4,122.4,304.2,124.5,297.1,124.7Z" style="fill:#fff"/><path d="M254.3,141.7c-.7-5-5.7-9.1-10-11-1.2-.8-2.8-.9-3.7-1.9,2.1-1.4,4.5-2.6,6.7-4.1s5.1-5.4,4.3-9.3c-.8-5.6-6.5-9-11-11.5-1.4-.9-3.2-1.1-4.5-2.2a25,25,0,0,1,4.6-7.6v-.4H240c-3.4,1.2-7.2,1.5-10.9,1.9-.5-.1-1,.1-.9.7a40.2,40.2,0,0,1,2.1,5.8c-.4,1.1-1.9.4-2.7.9-5.4,1.4-11.6,5.7-12.5,11.7s3.1,9,6.9,11.9c1.6,1.1,3.6,1.5,4.9,3a51.1,51.1,0,0,1-6.4,2.7c-.8.4-2.5-.5-2.6.8,2.1.5,3.6,1.9,5.2,3.6a.7.7,0,0,0,1.1-.2,7.4,7.4,0,0,1,.7-2.1c2-2,4.4-3.6,7.3-2.9s7.8,2.8,9.8,6.1a12.4,12.4,0,0,1,.6,10.8c-1.4,4.5-6.3,7.7-10.8,8.1s-11.3,0-14.3-4.9c-1.6-1.6-.6-4.2,0-6a8,8,0,0,1,4.2-3.5c2.4-.7,5.8-1.2,7.8.7s1.5,2,1.3,3.3-2.1,2-3.3,3v.3c.1.3.3.6.6.6,4.1-.9,9.2,1.3,11.9-3,.3-1.2.8-2.7.2-4s-3.5-3.5-5.7-4.1c-7-.9-14.8-.5-19,5.8a7.2,7.2,0,0,0-.4,7.7c4.4,5.6,11,7.7,17.9,7.1,5.2-1.3,10.4-2.6,14.9-5.7S254.8,146.6,254.3,141.7Zm-17.6-14.6c-1.7.8-4.6,1.4-6.4,0-3.3-2.7-3.8-6.6-4.3-10.5s.6-5.6,1.9-8.1,1.6-2.4,3-3.1.6.4.7.8.2,3.7,2,4.3c1.5-1.3.6-3.7,1.8-5,3.3.8,3.7,4.6,4.5,7.3C240.9,117.7,241.1,123.8,236.7,127.1Z" style="fill:#fff"/><path d="M102.6,124.9c.6,4.1-.4,8.7-4,11.4s-7.8,3.8-11.5,1.6c-5.7-3.6-6-10.4-6.1-16.5-.1-1.3-.1-2.8,1-3.5,8.2,0,16.5-.5,24.9-.1.9-.5.5-1.6.5-2.5-2.2-5.9-6.9-12.6-13.8-13.4s-11.7.1-16,3.9c-6.2,5.1-8.5,12.8-7.1,20.8,1.7,6,7.4,11.2,13.2,13.1,2.3,1.1,5.4.9,8.1,1,4.2-.5,8.1-1.6,11.4-4.1,1.7-1.7,3.7-3.3,4.5-5.6.5-.6,1.7-.5,1.8-1.5a36.9,36.9,0,0,0-3.4-2.5C104.7,126.3,104.2,123.8,102.6,124.9ZM86.8,104c1.5-.2,3.3-1,4.7-.1l1.8.7a9.3,9.3,0,0,1,3.7,7.1c-.1,1.1.3,2.6-.9,3.2s-4.3-.1-6.4.1h-8C81.8,110.7,82.7,106.2,86.8,104Z" style="fill:#fff"/><path d="M367.7,111.6a20.8,20.8,0,0,0-13.8-9.6,19.9,19.9,0,0,0-20.4,9.4c-3.7,5.7-3.2,14.4-.1,20.2s9.2,9.4,15.5,9.8,14.4-3,18.7-9.3S371.2,117.4,367.7,111.6Zm-7.9,13.2c-.7,4.9-1.6,9.7-5.2,13.4a5.7,5.7,0,0,1-5.2,1.4c-4.6-1.8-5.9-6.8-7.3-10.8-1.5-8.4-.8-17.6,4.8-23.9,1.5-1.2,3.6-2.1,5.5-1.1s4.7,4.5,5.7,7.3A35,35,0,0,1,359.8,124.8Z" style="fill:#fff"/><path d="M32.9,201.4h-.1a10.8,10.8,0,0,1-7.8,4.1c-4.3,0-5.8-3.5-4.7-7.3s7.2-9.2,13.4-9.2a14.4,14.4,0,0,1,5.3.8c1,.4,1.9.6,1.3,2.7l-2.8,9.2c-.3,1.1-.1,1.4.7,1.7s1.2.3.7.9l-.3.6a1.1,1.1,0,0,1-.8.3h-5c-.8,0-.9-.4-.7-1Zm-7.3-4c-.9,3-.4,5.5,1.8,5.5s5.9-2.9,7.3-7.3c.8-2.7,1-5-1.9-5S26.6,194.1,25.6,197.4Z" style="fill:#fff"/><path d="M67.2,190.5l-.9.7H62.2L59,201.8c-.4,1.3,0,1.6,1.7,1.9s.4.3.2.6l-.5.6c-.1.2-.3.3-.7.3H51c-.3,0-.6-.1-.3-.6l.4-.5c.2-.4.5-.4.8-.5a2.8,2.8,0,0,0,2.4-1.8l3.2-10.6H55l.6-1.8H58l.5-1.6c.7-2.5,3.7-4.2,6.1-5a15.8,15.8,0,0,1,3.6-.9c.6,0,1.6,0,1.8.4l1,2.2c.1.2,0,.4-.3.5l-1.2.9a.9.9,0,0,1-.7-.1l-1.1-.7c-.6-.3-1.3-1.1-2.2-1.1s-1.4.6-1.7,1.8l-1.1,3.6h4.9Z" style="fill:#fff"/><path d="M85.3,196.9c-1.3,4.6-6.4,8.6-12.5,8.6s-7.8-4.2-6.7-7.9,6.8-8.6,12.6-8.6S86.5,192.9,85.3,196.9Zm-5.1.5c1.2-4.1.1-6.7-2.4-6.7s-5.5,3-6.3,5.8c-1.5,4.8.1,7.3,2.4,7.3S79.3,200.5,80.2,197.4Z" style="fill:#fff"/><path d="M96.2,192.4h0a12,12,0,0,1,8.1-3.4c3.1,0,4.5,1.6,3.4,5.4l-2.3,7.4c-.4,1.3.1,1.6,1.7,1.9s.5.3.3.6l-.5.6a.9.9,0,0,1-.7.3H97.7c-.3,0-.6-.1-.3-.6l.4-.5c.2-.4.5-.4.7-.5a2.4,2.4,0,0,0,2.2-1.8l1.7-5.7c1.1-3.5.3-4.3-1.4-4.3s-5.3,2.2-7.1,8.2l-.6,1.8c-.4,1.3,0,1.6,1.5,1.9s.4.3.2.6l-.5.6a.6.6,0,0,1-.6.3H85.4c-.3,0-.7-.1-.3-.6l.3-.5a1.5,1.5,0,0,1,.8-.5,2.6,2.6,0,0,0,2.4-1.8l2.7-9.1c.4-1.3,0-1.5-1.6-1.9s-.6-.2-.3-.6l.5-.6a.7.7,0,0,1,.6-.2h5.7c.4,0,.9-.1.7.6Z" style="fill:#fff"/><path d="M123.8,202.1h-.1a10.7,10.7,0,0,1-7.2,3.4c-4.1,0-6.4-3.1-5.1-7.5s7.2-9,13.3-9a10.6,10.6,0,0,1,2.9.4l1.2-4.1c.4-1.4-.1-1.6-1.6-1.9s-.7-.2-.3-.6l.5-.6a.6.6,0,0,1,.6-.3h5.6c.7,0,.9.4.7,1l-5.7,18.8c-.3,1.1-.1,1.4.6,1.7s1.3.3.8.9l-.3.6a1.1,1.1,0,0,1-.8.3h-5.1c-.7,0-.9-.4-.7-1Zm-7.2-4.7c-.9,3-.1,5.5,2.2,5.5s5.3-2.1,6.8-6.9,1-5.4-1.8-5.4S117.6,194.1,116.6,197.4Z" style="fill:#fff"/><path d="M144.5,203.7a12.7,12.7,0,0,1-5.5,1.8c-3.6,0-4.9-1.6-3.8-5.4l2.2-7.4c.5-1.3,0-1.5-1.6-1.9s-.6-.2-.3-.6l.5-.6a.7.7,0,0,1,.6-.2h5.7c.4,0,.9,0,.6.8l-2.4,8.2c-1.1,3.5-.5,4.5,1.4,4.5s2.7-1,3.8-2.2,2.2-3.7,2.9-6.2l.6-1.8c.3-1,.1-1.5-1.4-1.9s-.7-.2-.3-.6l.5-.6c.1-.2.2-.2.4-.2h5.7c.4,0,.8,0,.6.8l-3.5,11.7c-.3.8-.1,1.1.1,1.2s2.8.3,1.9,1.3l-.4.5c-.2.3-.6.3-1.1.3h-5.4c-.4,0-.9,0-.7-.7l.6-1.7Z" style="fill:#fff"/><path d="M162.4,197.4c-1,3.1-.1,6,3.5,6a7.9,7.9,0,0,0,5.1-2c.4-.3,1.3.2.9.7l-1.8,2a2.1,2.1,0,0,1-1,.8,13.5,13.5,0,0,1-4.3.6c-6.3,0-8.7-3.8-7.4-8.1A11.8,11.8,0,0,1,169,189c4.8,0,6.4,2.9,5.1,7.1-.2.6-.7,1.3-1.2,1.3Zm6.3-1.7a1.8,1.8,0,0,0,1.8-1.4c.8-2.9-.5-3.8-2-3.8s-4.8,2.5-5.6,5.2Z" style="fill:#fff"/><path d="M195,192.2h.1c2-1.8,4.1-3.2,5.7-3.2s1.4.4,1.5.7v2.4l-.2.3-1.7,1c-.5.4-1-.2-1.9-.5a3.2,3.2,0,0,0-3.3.7,10,10,0,0,0-2,4.3l-1.1,3.9c-.4,1.3.2,1.6,2.4,1.9.6.1.6.3.3.6l-.5.6a1.2,1.2,0,0,1-.9.3h-9.3c-.3,0-.6-.1-.3-.6l.4-.5c.2-.4.5-.4.8-.5a2.8,2.8,0,0,0,2.4-1.8l2.7-9.1c.4-1.3-.1-1.5-1.6-1.9s-.7-.2-.3-.6l.5-.6a.7.7,0,0,1,.6-.2H195c.4,0,.9-.1.7.6Z" style="fill:#fff"/><path d="M206.9,197.4c-1,3.1-.1,6,3.5,6a7.7,7.7,0,0,0,5-2c.5-.3,1.4.2.9.7l-1.7,2a2.7,2.7,0,0,1-1,.8,14,14,0,0,1-4.3.6c-6.4,0-8.8-3.8-7.5-8.1a11.9,11.9,0,0,1,11.7-8.4c4.8,0,6.4,2.9,5.1,7.1-.2.6-.7,1.3-1.2,1.3Zm6.3-1.7a1.8,1.8,0,0,0,1.8-1.4c.8-2.9-.5-3.8-2.1-3.8s-4.7,2.5-5.5,5.2Z" style="fill:#fff"/><path d="M219.4,200.9c.1-.3.1-.7.4-.8l.7-.2c.5-.1.1,1,.5,2.1a2.6,2.6,0,0,0,2.7,2,3.9,3.9,0,0,0,3.9-2.4c.3-1.4-1.5-2.6-2.7-3.6s-3.7-2.4-3-4.8,3.3-4.2,8.1-4.2a19.5,19.5,0,0,1,3.9.4c.6.1.8.4.7.8l-.7,2.4-.3.3-.7.4c-.3.2-.5-.9-.8-1.6s-1.1-1.2-2.5-1.2a3.4,3.4,0,0,0-2.8,1.6c-.3,1.2,1.3,1.9,2.9,3.4s3.3,3.6,2.7,5.4-5.2,4.6-8.4,4.6a11.1,11.1,0,0,1-4.9-.8c-.3-.3-.7-.5-.7-.8Z" style="fill:#fff"/><path d="M250.1,190.5l-.9.7h-4.7l-2.8,9.3c-.6,1.9-.1,3,1.7,3l1.4-.2c.2-.1.6-.2.6,0l.2.9c.1.1,0,.2-.2.3l-1.1.5a10.5,10.5,0,0,1-3,.5c-4,0-5.4-1.6-4.4-5l2.8-9.3h-3l.6-1.8h3l.9-3.2,3.5-1.5c.8-.3,1.8-.3,1.7.1l-1.4,4.6h5.4Z" style="fill:#fff"/><path d="M261.6,201.4h0a11,11,0,0,1-7.9,4.1c-4.2,0-5.8-3.5-4.6-7.3s7.1-9.2,13.3-9.2a15.4,15.4,0,0,1,5.4.8c1,.4,1.9.6,1.3,2.7l-2.8,9.2c-.4,1.1-.1,1.4.6,1.7s1.3.3.8.9l-.4.6a.9.9,0,0,1-.7.3h-5.1c-.7,0-.9-.4-.7-1Zm-7.2-4c-1,3-.4,5.5,1.8,5.5s5.9-2.9,7.2-7.3c.8-2.7,1-5-1.9-5S255.3,194.1,254.4,197.4Z" style="fill:#fff"/><path d="M282.5,203.7a13.1,13.1,0,0,1-5.6,1.8c-3.5,0-4.9-1.6-3.8-5.4l2.3-7.4c.4-1.3-.1-1.5-1.6-1.9s-.7-.2-.3-.6l.5-.6c.1-.2.4-.2.6-.2h5.7c.3,0,.8,0,.5.8l-2.4,8.2c-1.1,3.5-.5,4.5,1.4,4.5s2.7-1,3.9-2.2,2.1-3.7,2.9-6.2l.5-1.8c.3-1,.1-1.5-1.4-1.9s-.6-.2-.3-.6l.5-.6.4-.2H292c.4,0,.8,0,.6.8l-3.5,11.7c-.2.8-.1,1.1.1,1.2s2.9.3,1.9,1.3l-.3.5a1.6,1.6,0,0,1-1.2.3h-5.4c-.4,0-.8,0-.6-.7l.5-1.7Z" style="fill:#fff"/><path d="M304.1,192.2h.1c2-1.8,4.1-3.2,5.7-3.2s1.4.4,1.5.7v2.4l-.2.3-1.7,1c-.5.4-1-.2-1.9-.5a3.2,3.2,0,0,0-3.3.7,10,10,0,0,0-2,4.3l-1.1,3.9c-.4,1.3.2,1.6,2.4,1.9.6.1.6.3.3.6l-.5.6a1.2,1.2,0,0,1-.9.3h-9.3c-.3,0-.6-.1-.3-.6l.4-.5c.2-.4.5-.4.8-.5a2.8,2.8,0,0,0,2.4-1.8l2.7-9.1c.4-1.3-.1-1.5-1.6-1.9s-.7-.2-.3-.6l.5-.6a.7.7,0,0,1,.6-.2h5.7c.4,0,.9-.1.7.6Z" style="fill:#fff"/><path d="M323.3,201.4h-.1a11,11,0,0,1-7.8,4.1c-4.3,0-5.8-3.5-4.7-7.3s7.1-9.2,13.4-9.2a15.2,15.2,0,0,1,5.3.8c1,.4,1.9.6,1.3,2.7l-2.8,9.2c-.3,1.1-.1,1.4.6,1.7s1.3.3.8.9l-.3.6a1.3,1.3,0,0,1-.8.3h-5.1c-.7,0-.9-.4-.7-1Zm-7.3-4c-1,3-.4,5.5,1.8,5.5s5.9-2.9,7.2-7.3c.8-2.7,1.1-5-1.9-5S316.9,194.1,316,197.4Z" style="fill:#fff"/><path d="M341.9,192.4h.1a11.9,11.9,0,0,1,8-3.4c3.2,0,4.6,1.6,3.5,5.4l-2.3,7.4c-.4,1.3.1,1.6,1.7,1.9s.5.3.2.6l-.4.6a.9.9,0,0,1-.7.3h-8.5c-.3,0-.6-.1-.3-.6l.4-.5c.2-.4.5-.4.7-.5a2.5,2.5,0,0,0,2.2-1.8l1.7-5.7c1.1-3.5.3-4.3-1.4-4.3s-5.3,2.2-7.1,8.2l-.6,1.8c-.4,1.3,0,1.6,1.5,1.9s.4.3.2.6l-.5.6a.6.6,0,0,1-.6.3h-8.5c-.3,0-.7-.1-.3-.6l.3-.5a1.5,1.5,0,0,1,.8-.5,2.6,2.6,0,0,0,2.4-1.8l2.7-9.1c.4-1.3,0-1.5-1.6-1.9s-.6-.2-.3-.6l.5-.6a.7.7,0,0,1,.6-.2H342c.4,0,.9-.1.7.6Z" style="fill:#fff"/><path d="M371.8,190.5l-.9.7h-4.7l-2.8,9.3c-.5,1.9,0,3,1.7,3l1.5-.2c.2-.1.6-.2.6,0l.2.9c0,.1,0,.2-.2.3l-1.2.5a9.8,9.8,0,0,1-2.9.5c-4,0-5.4-1.6-4.4-5l2.8-9.3h-3l.5-1.8h3.1l.9-3.2,3.5-1.5c.8-.3,1.8-.3,1.7.1l-1.4,4.6h5.4Z" style="fill:#fff"/></svg>