<svg xmlns="http://www.w3.org/2000/svg" viewBox="0 0 578.2 192.3"><title>denali-logo</title><polygon points="94.2 120.7 216.3 29.5 341.4 120.6 271.9 120.6 191.5 62.9 111.2 120.6 94.2 120.7" style="fill:#fff"/><polygon points="231.7 29.5 270.2 0 437.3 120.6 361.6 120.6 231.7 29.5" style="fill:#fff"/><polygon points="127.4 120.6 190.8 75.1 257.2 120.6 127.4 120.6" style="fill:#fff"/><path d="M87.9,141.2A32.9,32.9,0,0,0,71,133.9c-10.3-1.1-15.1-.7-15.1-.7H0v19H51.7c5.2,0,8.7-.1,12.1,1.2s4.2,4.4,4.5,6.7c.7,5.7-1,13.1-5.6,14.1s-37.9.8-37.9.8V154.7H0v37.6H57.4s15.2-.3,18.3-.7C97.8,189.1,101.3,153.5,87.9,141.2Z" style="fill:#fff;fill-rule:evenodd"/><polygon points="186.3 133.8 186.4 151.2 109.6 151.1 109.7 133.8 186.3 133.8" style="fill:#fff;fill-rule:evenodd"/><path d="M269,133.9c4.5.1,7.4.1,10.5.3,5.4.4,10.2,1.7,13.5,3.9,7.9,5.2,8.6,8.5,8.7,21.3,0,11.1-.1,32.2-.1,32.2H274.8s.1-14.1.1-21.8.4-14-6.3-16c-4.8-1.3-10.3-1.4-16.6-1.4H232.2v39.2H203V133.8S243.8,133.1,269,133.9Z" style="fill:#fff;fill-rule:evenodd"/><polygon points="354.8 135.5 385 135.5 430.6 191.6 398.8 191.6 354.8 135.5" style="fill:#fff;fill-rule:evenodd"/><polygon points="434.4 135.4 460.3 135.4 460.4 175.8 515.6 175.8 515.5 191.8 434.2 191.7 434.4 135.4" style="fill:#fff;fill-rule:evenodd"/><polygon points="547.6 135.5 547.8 152.6 525.3 152.7 525.3 135.5 547.6 135.5" style="fill:#fff;fill-rule:evenodd"/><polygon points="364.4 154.6 350.1 174.5 383.2 174.6 383.1 191.8 305.5 191.7 349.9 136.8 364.4 154.6" style="fill:#fff;fill-rule:evenodd"/><polygon points="110 156 186.4 155.9 186.4 169.6 136.7 169.6 136.7 174 186.3 174 186.4 191.9 109.9 191.8 110 156" style="fill:#fff;fill-rule:evenodd"/><polygon points="547.6 158.6 547.7 191.7 525.3 191.7 525.4 158.7 547.6 158.6" style="fill:#fff;fill-rule:evenodd"/><line x1="354.6" y1="135.4" x2="463.9" y2="135.4" style="fill:#fff"/><line x1="182.5" y1="133.8" x2="267.8" y2="133.8" style="fill:#fff"/><path d="M570.6,121.2c-4.2,0-7.6,3-7.6,6.8s3.4,6.8,7.6,6.8,7.6-3,7.6-6.8S574.8,121.2,570.6,121.2Zm0,12.3c-3.4,0-6.1-2.4-6.1-5.5s2.7-5.5,6.1-5.5,6.2,2.5,6.2,5.5S574,133.5,570.6,133.5Z" style="fill:#fff;fill-rule:evenodd"/><path d="M568.5,124.7h1.8a2.7,2.7,0,0,1,2.1.6,1.6,1.6,0,0,1,.6,1.3,2,2,0,0,1-1.4,1.9h0c.6.2.9.7,1.1,1.5a18.2,18.2,0,0,0,.5,2h-.9a5.8,5.8,0,0,1-.5-1.8,1.4,1.4,0,0,0-1.5-1.4h-.9v3.2h-.9Zm.9,3.3h1c1,0,1.6-.5,1.6-1.4s-.7-1.3-1.6-1.3h-1Z" style="fill:#fff"/></svg>