<svg xmlns="http://www.w3.org/2000/svg" viewBox="0 0 163.2 89.9"><path d="M12.6 58.9H4.7A2.7 2.7 0 0 0 2 61.2l-.6 2.4c-.4 1.6 0 2.1 1.5 2.1h3.4c.5 0 .7.1.6.5l-.2.7c-.1.3-.2.4-.7.4H.4L0 69h7.7a2.7 2.7 0 0 0 2.9-2.4l.7-2.7c.4-1.3-.5-1.9-2-1.9h-3c-.5 0-.6-.1-.6-.4l.2-.7c.1-.3.3-.4.8-.4h5.5l.4-1.6zm9.1 2.7h-3.4c-.6 0-.9.4-1.2.8l.2-.8h-3.7l-2.7 10.2h3.9l.9-3.5a.8.8 0 0 0 .9.7h3.2a2.8 2.8 0 0 0 2.9-2.2l.8-3c.4-1.2-.1-2.2-1.8-2.2zm-1.9 2l-.9 3.4c-.1.4-.3.5-.7.5h-1.6c-.4 0-.5-.1-.4-.5l.9-3.4a.7.7 0 0 1 .7-.6h1.6c.4 0 .5.2.4.6zm13.8-2.1h-6a2.4 2.4 0 0 0-2.6 2.2l-.8 3.1c-.3 1.2.3 2.2 1.5 2.2h8l.4-1.5h-5.5c-.5 0-.7-.2-.6-.7l.2-.7h6.4l.6-2.4a1.7 1.7 0 0 0-1.6-2.2zm-2 2.1l-.2 1h-2.7l.3-1a.7.7 0 0 1 .7-.6h1.5c.4 0 .6.2.4.6zm14.9-2.1h-6.3a2.8 2.8 0 0 0-2.8 2.3l-.8 3a1.7 1.7 0 0 0 1.8 2.2h6.3l.3-1.5h-4c-.5 0-.7-.2-.6-.7l.8-3a.9.9 0 0 1 .9-.8h4.1l.3-1.5zm6.2-2.6h-3.9l-.5 1.9h3.9l.5-1.9zm-.7 2.6h-3.9l-2 7.5h4l1.9-7.5zm9.6 0H54l-.4 1.5h5.6c.5 0 .6.2.5.5v.5h-4.5a2.4 2.4 0 0 0-2.7 2.1l-.2.7a1.7 1.7 0 0 0 1.6 2.2h3c.9 0 1.4-.2 1.7-.8v.8h3.7l1.3-4.8c.4-2-.4-2.7-2-2.7zM59 66.6c-.2.7-.3.9-.9.9H57c-.6 0-.8-.1-.7-.6l.3-.9c.1-.4.3-.6 1-.6h1.8zm11.7-7.7h-3.9L64.1 69H68l2.7-10.1zM87.4 60H81a3.5 3.5 0 0 0-3.5 2.8l-1.2 4.6c-.5 1.7.1 2.8 2 2.8h6.4a3.5 3.5 0 0 0 3.5-2.8l1.2-4.6c.5-1.7-.1-2.8-2-2.8zm-2.1 2.3l-1.5 5.5c-.1.5-.4.7-1 .7H81c-.6 0-.7-.2-.6-.7l1.5-5.5c.1-.4.4-.6 1-.6h1.8q.9 0 .6.6zm21.6.4H103l-1.4 5.5a.8.8 0 0 1-.7.5h-1.4c-.4 0-.5-.2-.5-.5l1.5-5.5h-3.9l-1.3 4.8c-.4 1.6.1 2.7 1.9 2.7h2.7a1.3 1.3 0 0 0 1.3-.8l-.3 1.6c-.1.4-.4.5-.9.5h-5.6l-.3 1.5h8a2.6 2.6 0 0 0 2.7-2.2l2.1-8.1zm17.4 2.9c.6-1.8.3-2.9-1.7-2.9h-3a1.2 1.2 0 0 0-1.2.8c-.1-.4-.2-.8-1.2-.8h-4c-.7 0-1 .3-1.4.9l.2-.9h-3.7l-.5 1.7-1.7 5.8h4l1.6-5.5c.1-.4.3-.5.7-.5h1.3c.4 0 .6.1.5.5l-1.6 5.5h4l1.6-5.5c0-.4.3-.5.7-.5h1.3c.4 0 .5.1.5.5l-1.6 5.5h3.9l1.3-4.6zm38.9-2.9h-7.1a2.7 2.7 0 0 0-2.8 1.9L153 66c-.3 1.1 0 1.8 1.4 1.8h3.5c.3 0 .4.2.3.4v.2c-.1.3-.2.4-.6.4h-5.4l-.3 1.4h7.2a2.7 2.7 0 0 0 2.7-2l.3-1.4c.4-1.3-.2-1.9-1.5-1.9h-3.3c-.4 0-.5 0-.5-.3v-.2q0-.3.6-.3h5.3l.4-1.4zm-11.2 0h-6.3a2.7 2.7 0 0 0-2.8 2.2l-.8 3a1.8 1.8 0 0 0 1.8 2.3h6.2l.4-1.5h-4c-.5 0-.7-.3-.6-.8l.7-3a1 1 0 0 1 1-.7h4.1l.3-1.5zm-9.5-2.7h-3.9l-.5 2h3.9l.5-2zm-.7 2.7h-3.9l-1.9 7.5h3.9l1.9-7.5zm-7.6 0h-3.4c-.6 0-.9.4-1.2.8l.2-.8h-3.7L123.4 73h3.9l.9-3.6c.1.5.3.8.9.8h3.1a2.8 2.8 0 0 0 3-2.2l.8-3c.3-1.3-.1-2.3-1.8-2.3zm-2.1 2l-.9 3.5a.7.7 0 0 1-.7.5H129c-.4 0-.5-.2-.4-.5l.9-3.5a.6.6 0 0 1 .6-.5h1.6c.4 0 .5.2.4.5zM95.5 60h-3.9l-2.7 10.2h3.9L95.5 60zM76.1 48.6a1.3 1.3 0 0 0-1.3 1.4 1.3 1.3 0 0 0 1.3 1.3 1.3 1.3 0 0 0 1.3-1.3 1.3 1.3 0 0 0-1.3-1.4zm0 2.4a1 1 0 0 1-1.1-1 1.1 1.1 0 0 1 2.2 0 1 1 0 0 1-1.1 1z" fill="#fff" fill-rule="evenodd"/><path d="M76.3 50.1c.3-.1.4-.2.4-.5s-.1-.4-.5-.4h-.6v1.5h.3v-.6h.2l.4.6h.3zm-.4-.2v-.5h.3c.1 0 .3 0 .3.2s-.2.3-.4.3zM57.1 16.1a13.6 13.6 0 0 0 .1 4.5s-.9 2.2-.9 8.4c0 0-1.2-9.4.8-12.9zm4-2c-1-.6-2.3 0-3 1.2s-.6 2.7.4 3.2 2.3 0 3-1.2.5-2.7-.4-3.2z" fill="#fff" fill-rule="evenodd"/><path d="M57.7 21.9s-3.6 11.3 4.5 20.2a24.3 24.3 0 0 1-4.1-13.3s2.1 5.6 3.6 7l.5-1.2a25.8 25.8 0 0 1-3.3-7.7 15.1 15.1 0 0 0 5.6 4.7v-2.3s-4.2-2.4-5.7-5.5l6-1v-2.1l-7.2 1.2zm48.4-5.8a13.6 13.6 0 0 1-.1 4.5s.8 2.2.8 8.4c0 0 1.2-9.4-.7-12.9zm-1-.8c-.7-1.2-2.1-1.8-3-1.2s-1.1 2-.4 3.2 2.1 1.8 3 1.2 1.1-1.9.4-3.2z" fill="#fff" fill-rule="evenodd"/><path d="M105.5 21.9s3.6 11.3-4.5 20.2a24.3 24.3 0 0 0 4.1-13.3s-2.1 5.6-3.6 7l-.6-1.2a23.3 23.3 0 0 0 3.3-7.7 14.4 14.4 0 0 1-5.5 4.7v-2.3s4.2-2.4 5.7-5.5l-6.1-1v-2.1l7.2 1.2zm-24-1.1a3.8 3.8 0 1 0 0 7.6 3.8 3.8 0 0 0 0-7.6zm-10.9 3.1L69 25.4a50.3 50.3 0 0 0 7.2 7.5s-3.6.3-10.4-3v2.2a22.1 22.1 0 0 0 10.1 3.2s-1.8 1.9-7.9 3.6l1.1 2s7.3-2.4 8.7-3.5l.5 13.8 2.1.2V34.8a2.7 2.7 0 0 0-1.1-2.3s-6.4-5.2-8.6-8.6zm21.7 0l1.6 1.5a50.3 50.3 0 0 1-7.2 7.5s3.6.3 10.4-3v2.2A22.1 22.1 0 0 1 87 35.3s1.8 1.9 7.9 3.6l-1.1 2s-7.3-2.4-8.7-3.5l-.5 13.8-2.1.2V34.8a2.7 2.7 0 0 1 1.1-2.3s6.4-5.2 8.6-8.6zM70.2 0a1.8 1.8 0 0 0-1.8 1.8 1.8 1.8 0 1 0 3.6 0A1.8 1.8 0 0 0 70.2 0zm-5.5 4.6a5.7 5.7 0 0 0-1 1.1 19.6 19.6 0 0 1 3.3.6s-5.3 2.7-6.8 4.4a4.5 4.5 0 0 0 .5.9 37.3 37.3 0 0 1 5.9-3.7 69.4 69.4 0 0 0-4.8 5.4l.8.7a50 50 0 0 1 4.9-5.4v10.1l1.3-.4.5-11.7a1.2 1.2 0 0 0-1.1-1.4 16.6 16.6 0 0 0-3.4-.6zm5.5 13.3a105.7 105.7 0 0 1 .1-11.3 3.3 3.3 0 0 1 1.4-2.5A53.7 53.7 0 0 1 78.1.5l.8.8a51.5 51.5 0 0 0-5.3 3 47.3 47.3 0 0 1 7.3-.5v1a52.7 52.7 0 0 0-7.5.9l5.3 2.8-1 1.4A53.1 53.1 0 0 0 72 7s-.5 5-.5 10.4l-1.3.5zM93.1 0a1.8 1.8 0 0 1 1.8 1.8 1.8 1.8 0 1 1-3.6 0A1.8 1.8 0 0 1 93.1 0zm5.5 4.6a5.7 5.7 0 0 1 1 1.1 19.6 19.6 0 0 0-3.3.6s5.3 2.7 6.9 4.4a4.5 4.5 0 0 1-.5.9 40 40 0 0 0-6-3.7 69.4 69.4 0 0 1 4.8 5.4l-.8.7a50 50 0 0 0-4.9-5.4v10.1l-1.3-.4-.3-11.7a1.1 1.1 0 0 1 1-1.4 16.6 16.6 0 0 1 3.4-.6zm-5.5 13.3A105.7 105.7 0 0 0 93 6.6a3.3 3.3 0 0 0-1.4-2.5A53.7 53.7 0 0 0 85.2.5l-.8.8a51.5 51.5 0 0 1 5.3 3 47.3 47.3 0 0 0-7.3-.5v1a52.7 52.7 0 0 1 7.5.9l-5.3 2.8 1 1.4A53.1 53.1 0 0 1 91.3 7s.5 5 .5 10.4l1.3.5z" fill="#fff" fill-rule="evenodd"/><path d="M66.7 76.8l-.7 3.1h-.3a2.7 2.7 0 0 0-.6-1.9 2 2 0 0 0-1.5-.6 3.1 3.1 0 0 0-1.9.8 6.2 6.2 0 0 0-1.7 2.6 7.4 7.4 0 0 0-.6 2.8 2.9 2.9 0 0 0 .6 1.9 2.5 2.5 0 0 0 1.7.6 2.4 2.4 0 0 0 1.5-.4 4 4 0 0 0 1.5-1.2h.3a6.6 6.6 0 0 1-1.8 1.9 3.8 3.8 0 0 1-2.2.5 3.7 3.7 0 0 1-2.8-1 3.9 3.9 0 0 1-1.1-2.8 5.3 5.3 0 0 1 .9-3 6.2 6.2 0 0 1 2.4-2.4 6.5 6.5 0 0 1 3.2-.9l1.5.3h.6a.8.8 0 0 0 .7-.4zm4 0l-1.8 6.4 1.4-1.9a2.7 2.7 0 0 1 1.1-.9 1.6 1.6 0 0 1 .9-.3.9.9 0 0 1 .6.3.9.9 0 0 1 .3.7 4.4 4.4 0 0 1-.2 1l-.9 3a1.8 1.8 0 0 0-.1.5v.2h.3l.5-.5c0-.1.1-.2.2-.3h.3a3.5 3.5 0 0 1-1.2 1.4 1.6 1.6 0 0 1-1 .4l-.7-.2a.9.9 0 0 1-.3-.6 5.1 5.1 0 0 1 .2-.9l.9-3a4.3 4.3 0 0 1 .1-.5h-.2c-.2 0-.4.2-.7.4a8 8 0 0 0-1.9 2.8l-.6 2.1h-1.8l2.3-8a4.5 4.5 0 0 0 .2-.8c0-.1-.1-.2-.2-.3h-.5v-.3l2.4-.4zm7.1 3.3l-1.5 5.1a1.8 1.8 0 0 0-.1.5v.2h.4a4.9 4.9 0 0 0 .8-1h.2c-.7 1.3-1.4 1.9-2.3 1.9l-.7-.2a.9.9 0 0 1-.3-.7 2.5 2.5 0 0 1 .2-.7l.9-3.4.2-.7c0-.1-.1-.2-.1-.3h-.7v-.3l2.4-.4zm-.5-3.3a1 1 0 0 1 1.1 1.1.9.9 0 0 1-.3.7 1.1 1.1 0 0 1-.8.3 1 1 0 0 1-1-1 1.1 1.1 0 0 1 .3-.8.9.9 0 0 1 .7-.3zm6.3 8.2l.2.2a7.5 7.5 0 0 1-1.4 1.2 4.1 4.1 0 0 1-1.8.5 2.7 2.7 0 0 1-1.2-.3 1.6 1.6 0 0 1-.7-.7 4.4 4.4 0 0 1-.2-1 4.6 4.6 0 0 1 .6-2.3 4.2 4.2 0 0 1 1.7-1.8 3.5 3.5 0 0 1 2-.7 1.7 1.7 0 0 1 1.3.4 1.2 1.2 0 0 1 .4.8 1.4 1.4 0 0 1-.3.9l-.7.3a1.1 1.1 0 0 1-.6-.2c-.1-.2-.2-.3-.2-.5a.8.8 0 0 1 .4-.7q.3-.1.3-.3l-.2-.3h-.3a2.1 2.1 0 0 0-1.2.5 4.4 4.4 0 0 0-1 1.6 4.6 4.6 0 0 0-.4 1.9 1.4 1.4 0 0 0 .4 1.1 1 1 0 0 0 .9.4 2 2 0 0 0 1-.2 3 3 0 0 0 1-.8zm8-4.8l-1.4 4.7v.6c-.1.1-.1.1-.1.2h.1a.1.1 0 0 0 .1.1l.4-.2a2.5 2.5 0 0 0 .5-.7h.3a3.3 3.3 0 0 1-1.1 1.4 1.9 1.9 0 0 1-1.2.4.8.8 0 0 1-.6-.2.5.5 0 0 1-.3-.5 3.6 3.6 0 0 1 .3-1.1v-.5a5.6 5.6 0 0 1-1.6 2 1.4 1.4 0 0 1-.9.3 1.1 1.1 0 0 1-.9-.5 2.7 2.7 0 0 1-.3-1.2 5.3 5.3 0 0 1 .6-2.3 4.9 4.9 0 0 1 1.6-2.1 2.3 2.3 0 0 1 1.5-.7l.7.2a1.9 1.9 0 0 1 .3.9l.3-.9zm-2.3 1.4a2 2 0 0 0-.2-.9l-.3-.2c-.2 0-.3.1-.5.3a4.7 4.7 0 0 0-1 1.8 5.6 5.6 0 0 0-.6 2.3.8.8 0 0 0 .2.5l.2.2a.9.9 0 0 0 .7-.4 4.1 4.1 0 0 0 .8-1.3 4.6 4.6 0 0 0 .7-2.3zm8.2-1.1h1.9l-.2.8h-1a1.3 1.3 0 0 1 .2.8 2.1 2.1 0 0 1-.3 1.2 2.2 2.2 0 0 1-1 .9 4.1 4.1 0 0 1-1.6.3h-1l-.6.4v.1c0 .1 0 .2.1.2l.5.3a6.8 6.8 0 0 1 1.9.5 1.9 1.9 0 0 1 1 .6 1.7 1.7 0 0 1 .3 1 1.8 1.8 0 0 1-.8 1.6 4.1 4.1 0 0 1-2.5.7 4.5 4.5 0 0 1-2.6-.6 1.2 1.2 0 0 1-.6-1c0-.3.2-.5.4-.8a4.7 4.7 0 0 1 1.7-.7l-.6-.4a1.4 1.4 0 0 1-.2-.6.9.9 0 0 1 .4-.8 3.7 3.7 0 0 1 1.3-.7 2.3 2.3 0 0 1-1.1-.7 2 2 0 0 1-.3-1.1 2.1 2.1 0 0 1 .4-1.1 2.4 2.4 0 0 1 1.1-.9 3.3 3.3 0 0 1 1.7-.4h1zM93.6 87a1.7 1.7 0 0 0-.9.6.9.9 0 0 0-.3.6c0 .4.2.6.5.9a2.8 2.8 0 0 0 1.6.4c.6 0 1-.1 1.2-.4a.8.8 0 0 0 .4-.7.9.9 0 0 0-.3-.7l-1.4-.5a1.5 1.5 0 0 1-.8-.2zm2.4-6.5c-.2 0-.4 0-.5.2a2.3 2.3 0 0 0-.7 1.1 5 5 0 0 0-.3 1.6 1.4 1.4 0 0 0 .2.6l.5.2.5-.2a3.2 3.2 0 0 0 .7-1.3 5 5 0 0 0 .3-1.6c0-.2-.1-.3-.2-.5zm8-.4a1.7 1.7 0 0 1 1 .3 1.4 1.4 0 0 1 .8.7 1.6 1.6 0 0 1 .2 1 4.6 4.6 0 0 1-.6 2.3 4.2 4.2 0 0 1-1.7 1.8 3.5 3.5 0 0 1-2.1.7 1.8 1.8 0 0 1-1.5-.6 1.8 1.8 0 0 1-.6-1.4 5.3 5.3 0 0 1 .4-1.8 5.6 5.6 0 0 1 1-1.5 6.7 6.7 0 0 1 1.4-1.1 3.5 3.5 0 0 1 1.7-.4zm-.3.4l-.6.2a6 6 0 0 0-1.2 2.1 8.9 8.9 0 0 0-.6 3 .8.8 0 0 0 .2.5c.1.2.3.2.5.2h.5a5.4 5.4 0 0 0 .7-1.2 9.3 9.3 0 0 0 .8-2 6.8 6.8 0 0 0 .3-1.9.8.8 0 0 0-.2-.6c-.1-.3-.2-.3-.4-.3z" fill="#fff"/></svg>