<svg xmlns="http://www.w3.org/2000/svg" viewBox="0 0 163.2 89.9"><title>special-olympics-logo</title><path d="M12.6,58.9H4.7A2.7,2.7,0,0,0,2,61.2l-.6,2.4c-.4,1.6,0,2.1,1.5,2.1H6.3c.5,0,.7.1.6.5l-.2.7c-.1.3-.2.4-.7.4H.4L0,69H7.7a2.7,2.7,0,0,0,2.9-2.4l.7-2.7c.4-1.3-.5-1.9-2-1.9h-3c-.5,0-.6-.1-.6-.4l.2-.7c.1-.3.3-.4.8-.4h5.5l.4-1.6Z" style="fill:#fff;fill-rule:evenodd"/><path d="M21.7,61.6H18.3c-.6,0-.9.4-1.2.8l.2-.8H13.6L10.9,71.8h3.9l.9-3.5a.8.8,0,0,0,.9.7h3.2a2.8,2.8,0,0,0,2.9-2.2l.8-3C23.9,62.6,23.4,61.6,21.7,61.6Zm-1.9,2L18.9,67c-.1.4-.3.5-.7.5H16.6c-.4,0-.5-.1-.4-.5l.9-3.4a.7.7,0,0,1,.7-.6h1.6C19.8,63,19.9,63.2,19.8,63.6Z" style="fill:#fff;fill-rule:evenodd"/><path d="M33.6,61.5h-6A2.4,2.4,0,0,0,25,63.7l-.8,3.1c-.3,1.2.3,2.2,1.5,2.2h8l.4-1.5H28.6c-.5,0-.7-.2-.6-.7l.2-.7h6.4l.6-2.4A1.7,1.7,0,0,0,33.6,61.5Zm-2,2.1-.2,1H28.7l.3-1a.7.7,0,0,1,.7-.6h1.5C31.6,63,31.8,63.2,31.6,63.6Z" style="fill:#fff;fill-rule:evenodd"/><path d="M46.5,61.5H40.2a2.8,2.8,0,0,0-2.8,2.3l-.8,3A1.7,1.7,0,0,0,38.4,69h6.3l.3-1.5H41c-.5,0-.7-.2-.6-.7l.8-3a.9.9,0,0,1,.9-.8h4.1l.3-1.5Z" style="fill:#fff;fill-rule:evenodd"/><polygon points="52.7 58.9 48.8 58.9 48.3 60.8 52.2 60.8 52.7 58.9 52.7 58.9" style="fill:#fff;fill-rule:evenodd"/><polygon points="52 61.5 48.1 61.5 46.1 69 50.1 69 52 61.5 52 61.5" style="fill:#fff;fill-rule:evenodd"/><path d="M61.6,61.5H54L53.6,63h5.6c.5,0,.6.2.5.5V64H55.2a2.4,2.4,0,0,0-2.7,2.1l-.2.7A1.7,1.7,0,0,0,53.9,69h3c.9,0,1.4-.2,1.7-.8V69h3.7l1.3-4.8C64,62.2,63.2,61.5,61.6,61.5ZM59,66.6c-.2.7-.3.9-.9.9H57c-.6,0-.8-.1-.7-.6l.3-.9c.1-.4.3-.6,1-.6h1.8Z" style="fill:#fff;fill-rule:evenodd"/><polygon points="70.7 58.9 66.8 58.9 64.1 69 68 69 70.7 58.9 70.7 58.9" style="fill:#fff;fill-rule:evenodd"/><path d="M87.4,60H81a3.5,3.5,0,0,0-3.5,2.8l-1.2,4.6c-.5,1.7.1,2.8,2,2.8h6.4a3.5,3.5,0,0,0,3.5-2.8l1.2-4.6C89.9,61.1,89.3,60,87.4,60Zm-2.1,2.3-1.5,5.5c-.1.5-.4.7-1,.7H81c-.6,0-.7-.2-.6-.7l1.5-5.5c.1-.4.4-.6,1-.6h1.8Q85.6,61.7,85.3,62.3Z" style="fill:#fff;fill-rule:evenodd"/><path d="M106.9,62.7H103l-1.4,5.5a.8.8,0,0,1-.7.5H99.5c-.4,0-.5-.2-.5-.5l1.5-5.5H96.6l-1.3,4.8c-.4,1.6.1,2.7,1.9,2.7h2.7a1.3,1.3,0,0,0,1.3-.8l-.3,1.6c-.1.4-.4.5-.9.5H94.4L94.1,73h8a2.6,2.6,0,0,0,2.7-2.2l2.1-8.1Z" style="fill:#fff;fill-rule:evenodd"/><path d="M124.3,65.6c.6-1.8.3-2.9-1.7-2.9h-3a1.2,1.2,0,0,0-1.2.8c-.1-.4-.2-.8-1.2-.8h-4c-.7,0-1,.3-1.4.9l.2-.9h-3.7l-.5,1.7-1.7,5.8h4l1.6-5.5c.1-.4.3-.5.7-.5h1.3c.4,0,.6.1.5.5l-1.6,5.5h4l1.6-5.5c0-.4.3-.5.7-.5h1.3c.4,0,.5.1.5.5l-1.6,5.5H123l1.3-4.6Z" style="fill:#fff;fill-rule:evenodd"/><path d="M163.2,62.7h-7.1a2.7,2.7,0,0,0-2.8,1.9L153,66c-.3,1.1,0,1.8,1.4,1.8h3.5c.3,0,.4.2.3.4v.2c-.1.3-.2.4-.6.4h-5.4l-.3,1.4h7.2a2.7,2.7,0,0,0,2.7-2l.3-1.4c.4-1.3-.2-1.9-1.5-1.9h-3.3c-.4,0-.5,0-.5-.3v-.2q0-.3.6-.3h5.3l.4-1.4Z" style="fill:#fff;fill-rule:evenodd"/><path d="M152,62.7h-6.3a2.7,2.7,0,0,0-2.8,2.2l-.8,3a1.8,1.8,0,0,0,1.8,2.3h6.2l.4-1.5h-4c-.5,0-.7-.3-.6-.8l.7-3a1,1,0,0,1,1-.7h4.1l.3-1.5Z" style="fill:#fff;fill-rule:evenodd"/><polygon points="142.5 60 138.6 60 138.1 62 142 62 142.5 60 142.5 60" style="fill:#fff;fill-rule:evenodd"/><polygon points="141.8 62.7 137.9 62.7 136 70.2 139.9 70.2 141.8 62.7 141.8 62.7" style="fill:#fff;fill-rule:evenodd"/><path d="M134.2,62.7h-3.4c-.6,0-.9.4-1.2.8l.2-.8h-3.7L123.4,73h3.9l.9-3.6c.1.5.3.8.9.8h3.1a2.8,2.8,0,0,0,3-2.2l.8-3C136.3,63.7,135.9,62.7,134.2,62.7Zm-2.1,2-.9,3.5a.7.7,0,0,1-.7.5H129c-.4,0-.5-.2-.4-.5l.9-3.5a.6.6,0,0,1,.6-.5h1.6C132.1,64.2,132.2,64.4,132.1,64.7Z" style="fill:#fff;fill-rule:evenodd"/><polygon points="95.5 60 91.6 60 88.9 70.2 92.8 70.2 95.5 60 95.5 60" style="fill:#fff;fill-rule:evenodd"/><path d="M76.1,48.6A1.3,1.3,0,0,0,74.8,50a1.3,1.3,0,0,0,1.3,1.3A1.3,1.3,0,0,0,77.4,50,1.3,1.3,0,0,0,76.1,48.6Zm0,2.4A1,1,0,0,1,75,50a1.1,1.1,0,0,1,2.2,0A1,1,0,0,1,76.1,51Z" style="fill:#fff;fill-rule:evenodd"/><path d="M76.3,50.1c.3-.1.4-.2.4-.5s-.1-.4-.5-.4h-.6v1.5h.3v-.6h.2l.4.6h.3Zm-.4-.2v-.5h.3c.1,0,.3,0,.3.2s-.2.3-.4.3Z" style="fill:#fff;fill-rule:evenodd"/><path d="M57.1,16.1a13.6,13.6,0,0,0,.1,4.5s-.9,2.2-.9,8.4c0,0-1.2-9.4.8-12.9Z" style="fill:#fff;fill-rule:evenodd"/><path d="M61.1,14.1c-1-.6-2.3,0-3,1.2s-.6,2.7.4,3.2,2.3,0,3-1.2.5-2.7-.4-3.2Z" style="fill:#fff;fill-rule:evenodd"/><path d="M57.7,21.9s-3.6,11.3,4.5,20.2a24.3,24.3,0,0,1-4.1-13.3s2.1,5.6,3.6,7l.5-1.2a25.8,25.8,0,0,1-3.3-7.7,15.1,15.1,0,0,0,5.6,4.7V29.3s-4.2-2.4-5.7-5.5l6-1V20.7l-7.2,1.2Z" style="fill:#fff;fill-rule:evenodd"/><path d="M106.1,16.1a13.6,13.6,0,0,1-.1,4.5s.8,2.2.8,8.4c0,0,1.2-9.4-.7-12.9Z" style="fill:#fff;fill-rule:evenodd"/><path d="M105.1,15.3c-.7-1.2-2.1-1.8-3-1.2s-1.1,2-.4,3.2,2.1,1.8,3,1.2,1.1-1.9.4-3.2Z" style="fill:#fff;fill-rule:evenodd"/><path d="M105.5,21.9s3.6,11.3-4.5,20.2a24.3,24.3,0,0,0,4.1-13.3s-2.1,5.6-3.6,7l-.6-1.2a23.3,23.3,0,0,0,3.3-7.7,14.4,14.4,0,0,1-5.5,4.7V29.3s4.2-2.4,5.7-5.5l-6.1-1V20.7l7.2,1.2Z" style="fill:#fff;fill-rule:evenodd"/><path d="M81.5,20.8a3.8,3.8,0,1,0,0,7.6,3.8,3.8,0,0,0,0-7.6Z" style="fill:#fff;fill-rule:evenodd"/><path d="M70.6,23.9,69,25.4a50.3,50.3,0,0,0,7.2,7.5s-3.6.3-10.4-3v2.2a22.1,22.1,0,0,0,10.1,3.2s-1.8,1.9-7.9,3.6l1.1,2s7.3-2.4,8.7-3.5l.5,13.8,2.1.2V34.8a2.7,2.7,0,0,0-1.1-2.3s-6.4-5.2-8.6-8.6Z" style="fill:#fff;fill-rule:evenodd"/><path d="M92.3,23.9l1.6,1.5a50.3,50.3,0,0,1-7.2,7.5s3.6.3,10.4-3v2.2A22.1,22.1,0,0,1,87,35.3s1.8,1.9,7.9,3.6l-1.1,2s-7.3-2.4-8.7-3.5l-.5,13.8-2.1.2V34.8a2.7,2.7,0,0,1,1.1-2.3s6.4-5.2,8.6-8.6Z" style="fill:#fff;fill-rule:evenodd"/><path d="M70.2,0a1.8,1.8,0,0,0-1.8,1.8,1.8,1.8,0,1,0,3.6,0A1.8,1.8,0,0,0,70.2,0Z" style="fill:#fff;fill-rule:evenodd"/><path d="M64.7,4.6a5.7,5.7,0,0,0-1,1.1,19.6,19.6,0,0,1,3.3.6S61.7,9,60.2,10.7a4.5,4.5,0,0,0,.5.9,37.3,37.3,0,0,1,5.9-3.7,69.4,69.4,0,0,0-4.8,5.4l.8.7a50,50,0,0,1,4.9-5.4V18.7l1.3-.4.5-11.7a1.2,1.2,0,0,0-1.1-1.4,16.6,16.6,0,0,0-3.4-.6Z" style="fill:#fff;fill-rule:evenodd"/><path d="M70.2,17.9a105.7,105.7,0,0,1,.1-11.3,3.3,3.3,0,0,1,1.4-2.5A53.7,53.7,0,0,1,78.1.5l.8.8a51.5,51.5,0,0,0-5.3,3,47.3,47.3,0,0,1,7.3-.5v1a52.7,52.7,0,0,0-7.5.9l5.3,2.8-1,1.4A53.1,53.1,0,0,0,72,7s-.5,5-.5,10.4l-1.3.5Z" style="fill:#fff;fill-rule:evenodd"/><path d="M93.1,0a1.8,1.8,0,0,1,1.8,1.8,1.8,1.8,0,1,1-3.6,0A1.8,1.8,0,0,1,93.1,0Z" style="fill:#fff;fill-rule:evenodd"/><path d="M98.6,4.6a5.7,5.7,0,0,1,1,1.1,19.6,19.6,0,0,0-3.3.6s5.3,2.7,6.9,4.4a4.5,4.5,0,0,1-.5.9,40,40,0,0,0-6-3.7,69.4,69.4,0,0,1,4.8,5.4l-.8.7a50,50,0,0,0-4.9-5.4V18.7l-1.3-.4L94.2,6.6a1.1,1.1,0,0,1,1-1.4,16.6,16.6,0,0,1,3.4-.6Z" style="fill:#fff;fill-rule:evenodd"/><path d="M93.1,17.9A105.7,105.7,0,0,0,93,6.6a3.3,3.3,0,0,0-1.4-2.5A53.7,53.7,0,0,0,85.2.5l-.8.8a51.5,51.5,0,0,1,5.3,3,47.3,47.3,0,0,0-7.3-.5v1a52.7,52.7,0,0,1,7.5.9L84.6,8.5l1,1.4A53.1,53.1,0,0,1,91.3,7s.5,5,.5,10.4l1.3.5Z" style="fill:#fff;fill-rule:evenodd"/><path d="M66.7,76.8,66,79.9h-.3a2.7,2.7,0,0,0-.6-1.9,2,2,0,0,0-1.5-.6,3.1,3.1,0,0,0-1.9.8A6.2,6.2,0,0,0,60,80.8a7.4,7.4,0,0,0-.6,2.8,2.9,2.9,0,0,0,.6,1.9,2.5,2.5,0,0,0,1.7.6,2.4,2.4,0,0,0,1.5-.4,4,4,0,0,0,1.5-1.2H65a6.6,6.6,0,0,1-1.8,1.9,3.8,3.8,0,0,1-2.2.5,3.7,3.7,0,0,1-2.8-1,3.9,3.9,0,0,1-1.1-2.8,5.3,5.3,0,0,1,.9-3,6.2,6.2,0,0,1,2.4-2.4,6.5,6.5,0,0,1,3.2-.9l1.5.3h.6a.8.8,0,0,0,.7-.4Z" style="fill:#fff"/><path d="M70.7,76.8l-1.8,6.4,1.4-1.9a2.7,2.7,0,0,1,1.1-.9,1.6,1.6,0,0,1,.9-.3.9.9,0,0,1,.6.3.9.9,0,0,1,.3.7,4.4,4.4,0,0,1-.2,1l-.9,3a1.8,1.8,0,0,0-.1.5v.2h.3l.5-.5c0-.1.1-.2.2-.3h.3a3.5,3.5,0,0,1-1.2,1.4,1.6,1.6,0,0,1-1,.4l-.7-.2a.9.9,0,0,1-.3-.6,5.1,5.1,0,0,1,.2-.9l.9-3a4.3,4.3,0,0,1,.1-.5h-.2c-.2,0-.4.2-.7.4a8,8,0,0,0-1.9,2.8l-.6,2.1H66.1l2.3-8a4.5,4.5,0,0,0,.2-.8c0-.1-.1-.2-.2-.3h-.5v-.3l2.4-.4Z" style="fill:#fff"/><path d="M77.8,80.1l-1.5,5.1a1.8,1.8,0,0,0-.1.5v.2h.4a4.9,4.9,0,0,0,.8-1h.2c-.7,1.3-1.4,1.9-2.3,1.9l-.7-.2a.9.9,0,0,1-.3-.7,2.5,2.5,0,0,1,.2-.7l.9-3.4.2-.7c0-.1-.1-.2-.1-.3h-.7v-.3l2.4-.4Zm-.5-3.3a1,1,0,0,1,1.1,1.1.9.9,0,0,1-.3.7,1.1,1.1,0,0,1-.8.3,1,1,0,0,1-1-1,1.1,1.1,0,0,1,.3-.8A.9.9,0,0,1,77.3,76.8Z" style="fill:#fff"/><path d="M83.6,85l.2.2a7.5,7.5,0,0,1-1.4,1.2,4.1,4.1,0,0,1-1.8.5,2.7,2.7,0,0,1-1.2-.3,1.6,1.6,0,0,1-.7-.7,4.4,4.4,0,0,1-.2-1,4.6,4.6,0,0,1,.6-2.3,4.2,4.2,0,0,1,1.7-1.8,3.5,3.5,0,0,1,2-.7,1.7,1.7,0,0,1,1.3.4,1.2,1.2,0,0,1,.4.8,1.4,1.4,0,0,1-.3.9l-.7.3a1.1,1.1,0,0,1-.6-.2c-.1-.2-.2-.3-.2-.5a.8.8,0,0,1,.4-.7q.3-.1.3-.3l-.2-.3h-.3a2.1,2.1,0,0,0-1.2.5,4.4,4.4,0,0,0-1,1.6,4.6,4.6,0,0,0-.4,1.9,1.4,1.4,0,0,0,.4,1.1,1,1,0,0,0,.9.4,2,2,0,0,0,1-.2A3,3,0,0,0,83.6,85Z" style="fill:#fff"/><path d="M91.6,80.2l-1.4,4.7v.6c-.1.1-.1.1-.1.2h.1a.1.1,0,0,0,.1.1l.4-.2a2.5,2.5,0,0,0,.5-.7h.3a3.3,3.3,0,0,1-1.1,1.4,1.9,1.9,0,0,1-1.2.4.8.8,0,0,1-.6-.2.5.5,0,0,1-.3-.5,3.6,3.6,0,0,1,.3-1.1v-.5a5.6,5.6,0,0,1-1.6,2,1.4,1.4,0,0,1-.9.3,1.1,1.1,0,0,1-.9-.5,2.7,2.7,0,0,1-.3-1.2,5.3,5.3,0,0,1,.6-2.3,4.9,4.9,0,0,1,1.6-2.1,2.3,2.3,0,0,1,1.5-.7l.7.2a1.9,1.9,0,0,1,.3.9l.3-.9Zm-2.3,1.4a2,2,0,0,0-.2-.9l-.3-.2c-.2,0-.3.1-.5.3a4.7,4.7,0,0,0-1,1.8,5.6,5.6,0,0,0-.6,2.3.8.8,0,0,0,.2.5l.2.2a.9.9,0,0,0,.7-.4,4.1,4.1,0,0,0,.8-1.3A4.6,4.6,0,0,0,89.3,81.6Z" style="fill:#fff"/><path d="M97.5,80.5h1.9l-.2.8h-1a1.3,1.3,0,0,1,.2.8,2.1,2.1,0,0,1-.3,1.2,2.2,2.2,0,0,1-1,.9,4.1,4.1,0,0,1-1.6.3h-1l-.6.4V85c0,.1,0,.2.1.2l.5.3a6.8,6.8,0,0,1,1.9.5,1.9,1.9,0,0,1,1,.6,1.7,1.7,0,0,1,.3,1,1.8,1.8,0,0,1-.8,1.6,4.1,4.1,0,0,1-2.5.7,4.5,4.5,0,0,1-2.6-.6,1.2,1.2,0,0,1-.6-1c0-.3.2-.5.4-.8a4.7,4.7,0,0,1,1.7-.7l-.6-.4a1.4,1.4,0,0,1-.2-.6.9.9,0,0,1,.4-.8,3.7,3.7,0,0,1,1.3-.7,2.3,2.3,0,0,1-1.1-.7,2,2,0,0,1-.3-1.1,2.1,2.1,0,0,1,.4-1.1,2.4,2.4,0,0,1,1.1-.9,3.3,3.3,0,0,1,1.7-.4H97ZM93.6,87a1.7,1.7,0,0,0-.9.6.9.9,0,0,0-.3.6c0,.4.2.6.5.9a2.8,2.8,0,0,0,1.6.4c.6,0,1-.1,1.2-.4a.8.8,0,0,0,.4-.7.9.9,0,0,0-.3-.7l-1.4-.5A1.5,1.5,0,0,1,93.6,87ZM96,80.5c-.2,0-.4,0-.5.2a2.3,2.3,0,0,0-.7,1.1,5,5,0,0,0-.3,1.6,1.4,1.4,0,0,0,.2.6l.5.2.5-.2a3.2,3.2,0,0,0,.7-1.3,5,5,0,0,0,.3-1.6c0-.2-.1-.3-.2-.5Z" style="fill:#fff"/><path d="M104,80.1a1.7,1.7,0,0,1,1,.3,1.4,1.4,0,0,1,.8.7,1.6,1.6,0,0,1,.2,1,4.6,4.6,0,0,1-.6,2.3,4.2,4.2,0,0,1-1.7,1.8,3.5,3.5,0,0,1-2.1.7,1.8,1.8,0,0,1-1.5-.6,1.8,1.8,0,0,1-.6-1.4,5.3,5.3,0,0,1,.4-1.8,5.6,5.6,0,0,1,1-1.5,6.7,6.7,0,0,1,1.4-1.1A3.5,3.5,0,0,1,104,80.1Zm-.3.4-.6.2a6,6,0,0,0-1.2,2.1,8.9,8.9,0,0,0-.6,3,.8.8,0,0,0,.2.5c.1.2.3.2.5.2h.5a5.4,5.4,0,0,0,.7-1.2,9.3,9.3,0,0,0,.8-2,6.8,6.8,0,0,0,.3-1.9.8.8,0,0,0-.2-.6C104,80.5,103.9,80.5,103.7,80.5Z" style="fill:#fff"/></svg>