<svg xmlns="http://www.w3.org/2000/svg" viewBox="0 0 385.2 54.9"><title>retrofit-logo</title><path d="M104.8,47.8H93.1L85.7,37.3H80.1V47.8H69.9V9.1H86.6c10,0,15.1,1.7,15.1,14,0,7.6-2,10.6-5.9,11.8ZM86.6,29.1c3.4,0,4.8-1.1,4.8-5.9s-1.7-5.8-4.8-5.8H80.1V29.1Z" style="fill:#fff"/><path d="M112.9,9.1h27.7V18H123.2v6h14.1v8.8H123.2v6.4h17.4v8.6H112.9Z" style="fill:#fff"/><path d="M160.7,18H148.4V9.1h34.9V18H171V47.8H160.7Z" style="fill:#fff"/><path d="M226.4,47.8H214.7l-7.3-10.5h-5.7V47.8H191.5V9.1h16.8c9.9,0,15,1.7,15,14,0,7.6-2,10.6-5.8,11.8ZM208.3,29.1c3.3,0,4.7-1.1,4.7-5.9s-1.7-5.8-4.8-5.8h-6.5V29.1Z" style="fill:#fff"/><path d="M232.2,28.5c0-17,7.6-20,19.1-20s19,2.9,19,19.9-7.5,20-19.1,20S232.2,45.4,232.2,28.5ZM259.5,30V26.9c0-7.3-1.8-9.7-8.3-9.7s-8.2,2.3-8.2,9.6v3.1c0,7.3,1.9,10,8.3,10S259.5,37.3,259.5,30Z" style="fill:#fff"/><path d="M279.5,9.1h27.7V18H289.8v8.3h14v8.4h-14V47.8H279.5Z" style="fill:#fff"/><path d="M315.5,9.1h10.3V47.8H315.5Z" style="fill:#fff"/><path d="M346.4,18H334.1V9.1h35V18H356.7V47.8H346.4Z" style="fill:#fff"/><path d="M46.2,0H8.7A8.7,8.7,0,0,0,0,8.7V46.2a8.7,8.7,0,0,0,8.7,8.7H46.2a8.7,8.7,0,0,0,8.7-8.7V8.7A8.7,8.7,0,0,0,46.2,0Zm-.5,23H39.1a12.7,12.7,0,0,1,0,3.9,17.6,17.6,0,0,1-1.1,4h5.9v5.5H34.7l4.4,8.3H31.9l-4.5-8.2H22.8l-1.4,8.4H14.5l1.3-8.4H8.9V30.9h7.8L18,23H10.7V17.6h8L20,9.4h7l-1.3,8.2h6.6l1.4-8.2h6.9l-1.3,8.2h6.4Z" style="fill:#fff"/><path d="M29.3,23.1H24.9l-1.2,7.8h4.4c2.3,0,3.4-.7,3.9-3.9S31.5,23.1,29.3,23.1Z" style="fill:#fff"/><path d="M374.5,14.6v-.7l1.7.2c.8,0,1.2-.1,1.2-.9s-.2-.7-1.2-.9-1.8-.6-1.8-1.7.7-1.5,1.9-1.5l1.7.2-.2.7h-1.5c-.7,0-1.1.1-1.1.7s.3.8,1.2,1,1.8.4,1.8,1.6-.7,1.6-2,1.6Z" style="fill:#fff"/><path d="M382.2,14.7l-1.7-3.9v3.9h-.7V9.2h.8l1.9,4.5,1.9-4.5h.8v5.5h-.7V10.8l-1.7,3.9Z" style="fill:#fff"/></svg>