<svg xmlns="http://www.w3.org/2000/svg" width="10" height="10"><path fill-rule="evenodd" fill="#CDCDCD" d="M7.91 10.005c-1.921 0-3.907-.884-5.449-2.425l-.031-.033C.842 5.963-.042 3.927.006 1.962l.003-.143.089-.114A5.232 5.232 0 0 1 2.345.044a.76.76 0 0 1 .281-.051c.233 0 .757.119.889.486.235.651.532 1.503.749 2.319.062.237-.011.791-.319.984l-.763.484c.007.005.004.124.104.261.294.403.637.803 1.018 1.191.381.375.781.717 1.184 1.008a.429.429 0 0 0 .239.091.11.11 0 0 0 .043-.007l.464-.743c.21-.328.74-.338.799-.338.063 0 .117.006.168.018 1.004.223 1.602.416 2.37.763.34.154.555.771.404 1.159A5.26 5.26 0 0 1 8.31 9.911l-.112.088-.288.006z"/></svg>