<svg xmlns="http://www.w3.org/2000/svg" width="14" height="15"><path fill-rule="evenodd" d="M13.527 1.086a.982.982 0 0 0-1.397 0l-1.771 1.781-.375-.376c-1.115-1.122-3.075-1.122-4.191 0L1.672 6.638a2.967 2.967 0 0 0-.865 2.108c0 .797.307 1.546.865 2.108l.374.375-1.771 1.783a.998.998 0 0 0 0 1.406.982.982 0 0 0 1.397 0l1.771-1.782.375.376a2.933 2.933 0 0 0 2.095.871c.793 0 1.538-.31 2.096-.871l4.121-4.146a2.971 2.971 0 0 0 .866-2.108c0-.798-.308-1.548-.866-2.109l-.374-.376 1.771-1.782a.997.997 0 0 0 0-1.405zm-2.794 4.969a.992.992 0 0 1 .287.703.993.993 0 0 1-.287.702l-4.121 4.146a1.014 1.014 0 0 1-1.397 0l-.375-.377.784-.787a.997.997 0 0 0 0-1.405.982.982 0 0 0-1.397 0l-.784.787-.374-.377a.991.991 0 0 1-.287-.701c0-.267.103-.517.287-.704l4.122-4.146a.977.977 0 0 1 .698-.288c.265 0 .513.102.698.288l.375.377-.784.788a.997.997 0 0 0 0 1.405.984.984 0 0 0 1.397 0l.784-.788.374.377z"/></svg>