<svg xmlns="http://www.w3.org/2000/svg" viewBox="0 0 291.3 291.3"><path d="M145.7 0c80.4 0 145.7 65.2 145.7 145.7s-65.2 145.7-145.7 145.7S0 226.1 0 145.7 65.2 0 145.7 0z" fill="#c4302b"/><path d="M220.1 100.5c-4.4-7.8-9.2-9.3-18.9-9.8-9.7-.7-34.2-.9-55.4-.9-21.3 0-45.8.3-55.5.9-9.7.6-14.5 2-19 9.9-4.5 7.8-6.9 21.3-6.9 45.1 0 23.7 2.3 37.3 6.9 45 4.5 7.8 9.2 9.3 19 9.9 9.7.6 34.2.9 55.5.9 21.2 0 45.7-.3 55.5-.9 9.7-.7 14.5-2.1 18.9-9.9 4.6-7.8 6.9-21.4 6.9-45v-.1c-.1-23.7-2.4-37.2-7-45.1zm-94.8 75.7v-61l50.8 30.5-50.8 30.5z" fill="#fff"/></svg>