<svg xmlns="http://www.w3.org/2000/svg" viewBox="0 0 291.319 291.319"><path d="M145.659 0c80.45 0 145.66 65.219 145.66 145.66 0 80.45-65.21 145.659-145.66 145.659S0 226.109 0 145.66C0 65.219 65.21 0 145.659 0z" fill="#e4e7e7"/><path d="M136.665 145.623c0 20.055-16.323 36.324-36.47 36.324s-36.47-16.268-36.47-36.324 16.323-36.333 36.47-36.333 36.47 16.278 36.47 36.333z" fill="#ff0084"/><path d="M227.702 145.623c0 20.055-16.323 36.324-36.47 36.324s-36.469-16.268-36.469-36.324 16.323-36.333 36.469-36.333 36.47 16.278 36.47 36.333z" fill="#0063dc"/></svg>