<svg id="Layer_1" xmlns="http://www.w3.org/2000/svg" viewBox="0 0 117.3 59.9"><style>.st0{fill:#fff}</style><path class="st0" d="M3.8 46.2h5.3l-1.3 1.3v9.8l1.3 1.3H3.8l1.3-1.3v-9.8l-1.3-1.3zM12.2 57.6l1.1 1.1H9.9l1.1-1.1v-8.2l-1.1-1.1h2.9l4.3 6.2v-5.1L16 48.3h3.4l-1.1 1.1v10.5l-6.1-8.8v6.5zM24.8 57.6l1.1 1.1h-4.4l1.1-1.1v-8.2h-1.4l-1.4 1.4v-2.5h7.9v2.5l-1.4-1.4h-1.5v8.2zM35.5 58.7h-7.3l1.1-1.1v-8.2l-1.1-1.1h7.3v2.5l-1.4-1.4h-2.6v3.3h1.8l1.1-1.1v3.3l-1.1-1.1h-1.8v3.9h2.6l1.4-1.4v2.4zM44.5 57.6l1.1 1.1h-3.1L40.3 54h-.7v3.6l1.1 1.1h-4.4l1.1-1.1v-8.2l-1.1-1.1h4c1.9 0 4 .9 4 2.8 0 1.4-1.1 2.3-2 2.5l2.2 4zm-5-8.3v3.5h.8c.9 0 1.6-.9 1.6-1.9 0-.9-.7-1.7-1.6-1.7h-.8z"/><path class="st0" d="M47.8 57.6l1.1 1.1h-3.5l1.1-1.1v-8.2l-1.1-1.1h2.9l4.3 6.2v-5.1l-1.1-1.1H55l-1.1 1.1v10.5l-6.1-8.8v6.5zM62.7 58.7h-7.3l1.1-1.1v-8.2l-1.1-1.1h7.3v2.5l-1.4-1.4h-2.6v3.3h1.8l1.1-1.1v3.3l-1.1-1.1h-1.8v3.9h2.6l1.4-1.4v2.4zM68.4 57.6l1.1 1.1h-4.4l1.1-1.1v-8.2h-1.4l-1.4 1.4v-2.5h7.9v2.5l-1.4-1.4h-1.5v8.2zM76.3 58.7l1.3-1.3v-9.8l-1.3-1.3h4.9c2.2 0 4.5.9 4.5 3.4 0 1-1.1 2.2-2.4 2.6 1.6.3 3 1.7 3 3.2 0 2.4-2.5 3.2-4.7 3.2h-5.3zm3.9-11.2v4.3h.9c1.1 0 1.8-.8 1.8-2.1s-.7-2.1-1.8-2.1h-.9zm1.3 9.9c1.1 0 1.9-.6 1.9-1.9 0-1.2-.8-2.4-1.9-2.4h-1.4v4.4h1.4zM89.8 58.7h-3.5l1.1-1.1 3.3-9.3H92l3.2 9.3 1.1 1.1H92l1.1-1.1-.6-1.8h-3.1l-.6 1.8 1 1.1zm-.1-4h2.4L91 51.3l-1.3 3.4zM98.8 57.6l1.1 1.1h-3.5l1.1-1.1v-8.2l-1.1-1.1h2.9l4.3 6.2v-5.1l-1.1-1.1h3.4l-1.1 1.1v10.5l-6.1-8.8v6.5zM109.6 57.6l1.1 1.1h-4.4l1.1-1.1v-8.2l-1.1-1.1h4.4l-1.1 1.1V53l3.7-3.7-1-1h3.5l-4.1 4.1 4.6 6.3h-3.5v-1.1l-3.1-4.3v4.3z"/><g><path class="st0" d="M42.6 13.8h11.1l-2.8 2.8v20.7l2.8 2.8H42.6l2.8-2.8V16.6l-2.8-2.8zM76.5 37.3l2.8 2.8h-7.7l-5.9-11.9h-1.9v9.1l2.9 2.8H55.6l2.8-2.8V16.6l-2.8-2.8h10.2c4.8 0 10.2 2.2 10.2 7 0 3.5-2.9 5.7-4.9 6.4l5.4 10.1zM63.9 16.5v9h1.9c2.4 0 4.1-2.2 4.1-4.7 0-2.3-1.8-4.3-4.1-4.3h-1.9z"/><path class="st0" d="M96 32.5c0 3.9-2.5 8-8.8 8-.9 0-1.9 0-2.8-.2l-6-1 2.8-5.4 3.3 3.7c.7.5 1.6.8 2.4.8 1.7 0 4-1.2 4-4.1 0-1.7-.9-2.5-1.6-3L83 27.4c-3.4-2-4.1-5.2-4.1-6.7 0-3.5 2.4-7.2 8.1-7.2.6 0 1.6.1 2.5.2l5.7 1-2.8 5-3.1-3.3c-.6-.4-1.3-.6-2-.6-2.1 0-3.4 1.7-3.4 3 0 1.2.7 2.6 2.5 3.7l6.3 3.9c1.5 1 3.3 2.9 3.3 6.1zM110.1 37.3l2.9 2.8h-11.1l2.8-2.8V16.5H101l-3.6 3.6v-6.3h20v6.3l-3.6-3.6h-3.7v20.8z"/></g><path class="st0" d="M36.8 4.2l5.5 5.4V0h-25v40.4h13.6L26.5 36V21h7.1l4.3 4.3V12.5l-4.3 4.3h-7.1V4.2zM2.7 40.4h13.7L16.3.1 0 7.8h7.8v28.3z"/></svg>