<svg id="Layer_1" xmlns="http://www.w3.org/2000/svg" viewBox="0 0 200.7 49.4"><style>.st0{fill:#fff}</style><path class="st0" d="M113.2 22.2v5.2c4.3.4 4.3-5.6 0-5.2zM54.8 22.2v5.2c4.3.4 4.3-5.6 0-5.2zM32.4 18.3L27.5 27h10l-5-8.9zM180.7 18.3h-.5v.5h.3c.3 0 .7 0 .7-.3s-.3-.2-.5-.2z"/><path class="st0" d="M0 0v49.4h200.7V0H0zm40.2 31.4H24.1l-2.6-4.3 5.8-9.1h5.2L30 13.4h5.2L43.1 27l-2.9 4.4zm18.9-.6c-2.1.9-6.3.6-9.3.6V18h4.7c2.8.1 5 .6 6.6 2.1 3.2 3.2 1.9 9.1-2 10.7zm13.6-9.2h-4.2v1.3h3.8v3.5h-3.8v1.4h4.2v3.6h-9V18h9v3.6zm10.1 9.8h-8.9V18h4.8v9.1h4.1v4.3zm6.1 0h-5v-9.1h-2.6V18h10.2v4.3h-2.6v9.1zm10.2 0l-2.5-8-2.5 8h-4.6L94.3 18h4.6l4.8 13.4h-4.6zm18.4-.6c-2.1.9-6.2.6-9.2.6V18h4.7c2.7.1 4.9.6 6.5 2.1 3.3 3.2 1.9 9.1-2 10.7zm13.7-9.2h-4.3v1.3h3.8v3.5H127v1.4h4.2v3.6h-9.1V18h9.1v3.6zm14.7 9.9H141c-.8-1.4-2.4-4.2-3.9-6.4v6.4h-4.8c0-1.8.1-10 0-13.3h4.8c1.2 2.4 2.6 4.6 4.1 6.8v-6.8h4.8c0 3.3-.1 8.1-.1 13.3zm8.7-.1h-5.1v-9.1H147V18h10.2v4.3h-2.6v9.1zm10.2 0l-2.5-8-2.4 8h-4.7l4.9-13.4h4.5l4.9 13.4h-4.7zm14.2 0h-8.9V18h4.9v9.1h4v4.3zm1.6-10.6c-1 0-1.8-.8-1.8-1.8s.8-1.8 1.8-1.8 1.8.8 1.8 1.8-.8 1.8-1.8 1.8z"/><path class="st0" d="M180.6 17.5c-.8 0-1.5.7-1.5 1.5s.7 1.5 1.5 1.5 1.5-.7 1.5-1.5-.7-1.5-1.5-1.5zm.9 2.5h-.4l-.6-.9h-.3v.9h-.3v-2h.9c.3 0 .7.1.7.5 0 .3-.3.6-.6.6l.6.9z"/></svg>