<svg xmlns="http://www.w3.org/2000/svg" viewBox="0 0 200.7 49.4"><title>delta-dental-logo</title><path d="M113.2,22.2v5.2C117.5,27.8,117.5,21.8,113.2,22.2Z" style="fill:#67bb49"/><path d="M54.8,22.2v5.2C59.1,27.8,59.1,21.8,54.8,22.2Z" style="fill:#67bb49"/><polygon points="32.4 18.3 27.5 27 37.5 27 32.5 18.1 32.4 18.3" style="fill:#67bb49"/><path d="M180.7,18.3h-.5v.5h.3c.3,0,.7,0,.7-.3S180.9,18.3,180.7,18.3Z" style="fill:#67bb49"/><path d="M0,0V49.4H200.7V0ZM40.2,31.4H24.1l-2.6-4.3L27.3,18h5.2L30,13.4h5.2L43.1,27Zm18.9-.6c-2.1.9-6.3.6-9.3.6V18h4.7c2.8.1,5,.6,6.6,2.1C64.3,23.3,63,29.2,59.1,30.8Zm13.6-9.2H68.5v1.3h3.8v3.5H68.5v1.4h4.2v3.6h-9V18h9Zm10.1,9.8H73.9V18h4.8v9.1h4.1Zm6.1,0h-5V22.3H81.3V18H91.5v4.3H88.9Zm10.2,0-2.5-8-2.5,8H89.5L94.3,18h4.6l4.8,13.4Zm18.4-.6c-2.1.9-6.2.6-9.2.6V18H113c2.7.1,4.9.6,6.5,2.1C122.8,23.3,121.4,29.2,117.5,30.8Zm13.7-9.2h-4.3v1.3h3.8v3.5H127v1.4h4.2v3.6h-9.1V18h9.1Zm14.7,9.9H141c-.8-1.4-2.4-4.2-3.9-6.4v6.4h-4.8c0-1.8.1-10,0-13.3h4.8a60.3,60.3,0,0,0,4.1,6.8V18.2H146C146,21.5,145.9,26.3,145.9,31.5Zm8.7-.1h-5.1V22.3H147V18h10.2v4.3h-2.6Zm10.2,0-2.5-8-2.4,8h-4.7L160.1,18h4.5l4.9,13.4Zm14.2,0h-8.9V18H175v9.1h4Zm1.6-10.6a1.8,1.8,0,1,1,1.8-1.8A1.8,1.8,0,0,1,180.6,20.8Z" style="fill:#67bb49"/><path d="M180.6,17.5a1.5,1.5,0,1,0,1.5,1.5A1.5,1.5,0,0,0,180.6,17.5Zm.9,2.5h-.4l-.6-.9h-.3V20h-.3V18h.9c.3,0,.7.1.7.5a.6.6,0,0,1-.6.6Z" style="fill:#67bb49"/></svg>