<svg id="Layer_1" xmlns="http://www.w3.org/2000/svg" viewBox="0 0 245.3 46.8"><style>.st0,.st1{fill:#fff;stroke:#fff}.st0{stroke-width:2.476;stroke-linejoin:round}.st1{stroke-miterlimit:10}</style><path class="st0" d="M44.4 11.8L25.3 44.7s9.4-14.7 18.5-15 19.6 15.1 19.6 15.1l-19-33z"/><circle class="st1" cx="44.4" cy="41.7" r="5"/><path class="st0" d="M20.3 35.5L39.4 2.6s-9.4 14.8-18.5 15S1.2 2.5 1.2 2.5l19.1 33z"/><circle class="st1" cx="18.8" cy="5.6" r="5"/><path class="st0" d="M68.4 35.5L49.3 2.6s9.4 14.8 18.5 15S87.5 2.5 87.5 2.5l-19.1 33z"/><circle class="st1" cx="69.9" cy="5.6" r="5"/><path d="M101.3 45.6V1.2h10.8v44.4h-10.8zm47.5 0L131 16.5h-.2l.2 29.1h-10.4V1.2h12.2l17.8 29h.2l-.2-29H161v44.4h-12.2zm52.5-.8c-3.2 1.4-6.6 2.1-10 2-3.2 0-6.5-.6-9.5-1.7-2.8-1.1-5.3-2.7-7.5-4.8-2.2-2.1-3.9-4.7-5-7.5-1.3-3-2-6.2-1.9-9.5 0-3.3.6-6.6 1.9-9.6 1.1-2.8 2.9-5.3 5.1-7.4 2.2-2 4.8-3.6 7.6-4.7 3-1.1 6.3-1.6 9.5-1.6s6.3.6 9.3 1.7c2.8 1 5.3 2.6 7.3 4.8l-7.2 7.3c-1-1.4-2.4-2.4-4-3.1-1.6-.6-3.3-1-5-1-1.8 0-3.6.4-5.2 1.1-1.5.6-2.9 1.6-4 2.8-1.2 1.2-2.1 2.7-2.7 4.3-.6 1.7-.9 3.6-.9 5.4 0 1.9.3 3.7.9 5.5.6 1.6 1.5 3 2.6 4.3 1.1 1.2 2.5 2.2 4 2.8 3.4 1.4 7.3 1.3 10.7-.2 1.5-.8 2.8-1.9 3.8-3.3l7.5 7c-2 2.3-4.5 4.2-7.3 5.4zm37.2-32.1c-1-1.1-2.2-2.1-3.6-2.8-1.3-.6-2.8-1-4.3-1l-2.2.2c-.7.1-1.4.4-2 .7-.6.4-1 .8-1.4 1.4-.4.7-.6 1.4-.6 2.2 0 .6.1 1.2.4 1.8.3.6.8 1 1.4 1.3.7.5 1.4.8 2.2 1.1l2.8 1 4.7 1.6c1.6.6 3.1 1.4 4.4 2.4 1.4 1 2.5 2.3 3.4 3.8.9 1.7 1.3 3.6 1.3 5.5.1 2.3-.4 4.5-1.4 6.6-.9 1.8-2.2 3.4-3.8 4.6-1.6 1.2-3.5 2.1-5.5 2.7-2 .6-4.2.9-6.3.9-3.1 0-6.3-.6-9.2-1.7-2.8-.9-5.4-2.6-7.4-4.7l7-7.1c1.2 1.4 2.7 2.5 4.3 3.3 1.6.9 3.4 1.4 5.3 1.4.8 0 1.6-.1 2.3-.3.7-.1 1.4-.4 2-.8.6-.4 1-.9 1.3-1.5.4-.7.6-1.5.5-2.3 0-.7-.2-1.5-.6-2.1-.5-.7-1.1-1.2-1.8-1.6-.9-.6-1.9-1-2.9-1.3l-3.9-1.3-4.1-1.6c-1.3-.7-2.6-1.5-3.7-2.4-1.1-1.1-1.9-2.3-2.6-3.6-.6-1.6-.9-3.4-.9-5.1-.1-2.2.5-4.4 1.5-6.4 1-1.7 2.3-3.1 3.9-4.3 1.7-1.1 3.6-1.9 5.5-2.5 2.1-.5 4.2-.7 6.3-.7 2.6 0 5.2.4 7.6 1.3 2.5.9 4.9 2.3 6.9 4.1l-6.8 7.2z" fill="#fff"/></svg>