<svg xmlns="http://www.w3.org/2000/svg" viewBox="0 0 321.2 75.7"><path d="M115.3 39.6h-2.5c-8.1 0-13 3.2-13 8.1s3.7 7.8 7.7 7.8 6.1-2.5 7.8-4.9zm3.2 18.7l-2.8-3.6h-.4c-1.7 2-5.3 4.4-11.4 4.4-4.5 0-11.8-2.4-11.8-11.4s9.7-11.4 20.7-11.4h2.5c0-11.4-3.7-13.8-8.6-13.8s-7.7 1.6-8.9 6.9h-3.7c0-2.8 0-5.3 2-7.3s7.4-2.9 12.2-2.9c7.4 0 14.3 2.5 14.3 17.1v22zm21.4 0h-7.4v-44c0-4.8-.8-8.1-5.7-8.1h-1.6V4.6h7.3c5.7 0 7.4 1.6 7.4 9.7zM156 15.2c-2.5 0-4.6-2.5-4.6-5.3a3.5 3.5 0 0 1 3.8-3.6c2.5 0 4.5 2.4 4.5 5.2a3.4 3.4 0 0 1-3.7 3.7m4.2 43.1h-7.3V29.8c0-4.9-.8-8.1-5.7-8.1h-1.6V20h7.3c5.7 0 7.3 1.7 7.3 9.8zm24.3-36.2c-4.5 0-8.2 2.4-8.2 9.3s3.7 9.4 8.2 9.4 8.1-2.4 8.1-9.4-3.6-9.3-8.1-9.3m-3.7 30.1c-4.1 1.6-6.9 4.5-6.9 9.8s4.5 9.3 10.6 9.3 10.6-2.8 10.6-9.3-3.3-8.6-9.8-9.4zm3.7-33h15v2.1l-5.2.8v.4a10.1 10.1 0 0 1 5.7 8.9c0 9.4-7 12.3-15.5 12.3-5.7 0-8.6.8-8.6 2.8s2.9 2.9 8.6 2.9c9.8 0 17.9 3.6 17.9 12.6s-7.7 12.6-17.9 12.6-17.9-3.3-17.9-12.6c0-5.3 4-9 8.9-10.6a5.4 5.4 0 0 1-3.2-4.9 5.3 5.3 0 0 1 2.8-4.5 11.6 11.6 0 0 1-6.1-10.6c0-9.3 6.9-12.2 15.5-12.2m26 10.6c0-4.9-.8-8.1-5.7-8.1h-1.6V20h7.3c4.1 0 6.2 1.3 7 3.3h.4a15.1 15.1 0 0 1 10.6-4.1c6.9 0 13.8 2.9 13.8 14.7v24.4H235V33.9c0-8.2-4.5-11-9-11s-6.1 2-8.1 4.3v31.1h-7.4zm63.1 7.3c0-8.9-2.9-14.2-8.6-14.2s-8.5 6.1-8.5 14.2zm7.1 3.3h-24.2c0 9 4 15.5 11 15.5 5.3 0 8.5-2.5 11.4-6.5l1.6 1.2c-3.7 6.1-8.6 8.5-14.7 8.5-11.4 0-17.1-8.9-17.1-19.9s5.7-20 15.9-20 16.3 6.5 16.3 17.9zm32.4-15.5c-2.5-1.2-5.3-2.4-7.8-2.4-7.3 0-10.1 7.3-10.1 16.7s2.8 16.7 9.3 16.7c4.9 0 6.9-2.5 8.6-4.9zm7.3 33.4h-4.1l-2.8-3.6h-.4c-1.7 2-4.5 4.4-11 4.4-9.8 0-14.7-8.9-14.7-19.9s4.9-20 15.5-20a22.4 22.4 0 0 1 10.2 2.5v-7.4c0-4.8-.8-8.1-5.7-8.1h-1.7V4.6h7.4c5.7 0 7.3 1.6 7.3 9.7zM209.7 73.7l1.4-9.6h.1l4 7.9 3.8-7.9h.2l1.4 9.6h-1l-.9-6.8-3.4 6.8h-.3l-3.4-6.9-1 6.9h-.9zm17.7-8.9a3.6 3.6 0 0 0-2 .6 2.8 2.8 0 0 0-1.5 1.5 3.7 3.7 0 0 0-.6 2.1 4.1 4.1 0 0 0 4.1 4.1 4.2 4.2 0 0 0 2.1-.6A4.3 4.3 0 0 0 231 71a4.6 4.6 0 0 0 .5-2.1 4.6 4.6 0 0 0-.5-2 3.6 3.6 0 0 0-1.5-1.5 4.2 4.2 0 0 0-2.1-.6m0-.9a5.2 5.2 0 0 1 3.6 1.4 5.1 5.1 0 1 1-7.2 7.2 4.6 4.6 0 0 1-1.4-3.5 5.8 5.8 0 0 1 .6-2.6 4.7 4.7 0 0 1 1.9-1.8 4.3 4.3 0 0 1 2.5-.7m8.3 8.9h1.1a9.1 9.1 0 0 0 2.7-.2 2.8 2.8 0 0 0 1.7-1.3 3.2 3.2 0 0 0 .7-2.2 4.5 4.5 0 0 0-.7-2.4 3.8 3.8 0 0 0-1.9-1.4l-3-.2h-.6zm-1 .9v-9.6h2a8.5 8.5 0 0 1 3.2.4 4.6 4.6 0 0 1 2.2 1.7 5.2 5.2 0 0 1 .7 2.9 5.1 5.1 0 0 1-.6 2.5 3.5 3.5 0 0 1-1.6 1.6 5.6 5.6 0 0 1-2.8.5zm10.3-9.6h5.5v1H246v3h4.5v.9H246v3.8h4.5v.9H245v-9.6zm8.5 1v3.2h1.7l1.4-.2c.3-.2.6-.3.7-.6a1.5 1.5 0 0 0 0-1.8c-.1-.3-.4-.4-.6-.6h-3.2zm-.9-1h1.9l2.2.2a2.9 2.9 0 0 1 1.4.8 2.8 2.8 0 0 1 .5 1.6 2.3 2.3 0 0 1-.4 1.4 2.2 2.2 0 0 1-1 .9 5 5 0 0 1-1.9.3l3.4 4.4h-1.2l-3.4-4.4h-.6v4.4h-.9zm8.4 9.6v-9.6h.2l6.4 7.4v-7.4h1v9.6h-.3l-6.3-7.2v7.2h-1zm14.2-9.6h1v4.1h4.9v-4.1h1v9.6h-1v-4.6h-4.9v4.6h-1v-9.6zm9.5 0h5.5v1h-4.5v3h4.5v.9h-4.5v3.8h4.5v.9h-5.5v-9.6zm11.3 2.1l-1.6 3.5h3.3zm.1-2.1l4.5 9.6h-1l-1.5-3.1h-4.2l-1.5 3.1h-1l4.5-9.6zm6.3 0h1v8.7h3.7v.9h-4.7v-9.6zm5 1v-1h5.3v1h-2.2v8.6h-1v-8.6h-2.1zm7-1h.9v4.1h4.9v-4.1h1v9.6h-1v-4.6h-4.9v4.6h-.9v-9.6zM37.8 0a37.9 37.9 0 1 0 37.9 37.8A37.8 37.8 0 0 0 37.8 0zM52 69s-5.6 3.7-9.3 1.5a10.8 10.8 0 0 0-9.6-.1c-3 1.4-5.6 1.8-9.6-1.2 0 0-26-18.3-16.4-46.8 0 0 4-14.3 23-10.3a25.2 25.2 0 0 0 6.2 1.1 8.8 8.8 0 0 0-4.4-6.4 1.9 1.9 0 0 1-.6-2.5 2.1 2.1 0 0 1 2.9-.6c.3.2 4.5 2.6 4.7 9.5a18.9 18.9 0 0 0 5.1-.7c8.5-2.2 18.5-3.7 24.4 9.9S68.3 57.5 52 69z" fill="#fff"/><path d="M31.5 55.2c.1 4.4 12.6.2 12.6.2s-5.7-2.1-9.5-2.1c-1.8 0-3.1.5-3.1 1.9M44.1 50c0-1.5-1.5-2-3.4-2-3.8 0-9.2 1.8-9.2 1.8s12.6 4.5 12.6.2m-12.6-5.5c.1 4.3 12.6.2 12.6.2s-5.7-2.1-9.5-2.1c-1.8 0-3.1.5-3.1 1.9M44.1 28c0-1.5-1.5-2-3.4-2-3.7 0-9.2 1.8-9.2 1.8s12.6 4.5 12.6.2m-12.6 5.2c.1 4.4 12.6.2 12.6.2s-5.7-2-9.5-2c-1.8 0-3.1.4-3.1 1.8m0 5.3s5.4-1.8 9.2-1.8c1.9 0 3.4.5 3.4 2 0 4.3-12.6-.2-12.6-.2" fill="#fff"/></svg>