<svg xmlns="http://www.w3.org/2000/svg" viewBox="0 0 210.3 45.1"><path d="M203.8 19.5c-1.4 0-2.8.7-2.8 1.9s.7 1.4 2 1.6l3.3.6c2.7.5 4 1.8 4 4s-1.8 5.1-6.5 5.1a10.5 10.5 0 0 1-6.8-2.6l2.2-2.3A6.9 6.9 0 0 0 204 30c1.9 0 3-1 3-1.9s-.8-1.5-2-1.7l-1.8-.4c-4.3-.8-5.5-2.1-5.5-4.3s2.2-4.9 6-4.9a9.7 9.7 0 0 1 6 2.1l-1.8 2.3a6.2 6.2 0 0 0-4.1-1.7zm-14.2 7.3V12.7h3.2v13.5c0 1.8.4 2.4 1.4 3l1.7.9-1.4 2.6c-3.3-1.6-4.9-2.7-4.9-5.9zm-7.2 3.7a6.5 6.5 0 0 1-5 2.2 7.8 7.8 0 0 1-7.9-8 8.1 8.1 0 0 1 8-7.9 6 6 0 0 1 4.9 2.2v-1.8h3.3v15.1h-3.3zm-4.6-10.6a4.9 4.9 0 1 0 4.8 4.8 4.8 4.8 0 0 0-4.8-4.8zm-16.7 9.7a4.7 4.7 0 0 0 3.9-2.2l2.9 1.7a8.3 8.3 0 0 1-6.8 3.6 8 8 0 1 1 0-15.9 7.9 7.9 0 0 1 6.8 3.6l-2.9 1.7a4.5 4.5 0 0 0-3.9-2.2 4.9 4.9 0 1 0 0 9.7zm-18.7 3.1a8 8 0 1 1 0-15.9 8 8 0 1 1 0 15.9zm0-12.8a4.9 4.9 0 1 0 5 4.9 4.8 4.8 0 0 0-5-4.9zm-23.2-2.7h3.6l3.3 8.6h.1l3.4-8.6h3.6l-7 15.5zm-17.5 21.3a7.7 7.7 0 0 1-6.5-3l2.8-1.7a4.8 4.8 0 0 0 3.5 1.6 3.7 3.7 0 0 0 4-3.9v-.9a5.3 5.3 0 0 1-4.6 2.1c-3.4 0-6.2-2.5-6.2-6.8v-8.7H98v8.9c0 2.5 1.6 3.5 3.6 3.5s3.7-1.5 3.7-3.8v-8.6h3.3v14.6c0 4.7-4.1 6.7-6.9 6.7zm-11.3-9.3l1.7.9-1.4 2.6c-3.4-1.6-4.9-2.7-4.9-5.9v-6.5h-1.9v-3.1h1.9v-4l3.2-.9v4.9h2.6v3.1H89v5.9c0 1.6.4 2.4 1.4 3zM79.3 15.9a1.8 1.8 0 1 1 1.8-1.8 1.8 1.8 0 0 1-1.8 1.8zM67.5 23l3.3.6c2.7.5 4 1.8 4 4s-1.8 5.1-6.4 5.1a10.6 10.6 0 0 1-6.9-2.6l2.2-2.3a6.9 6.9 0 0 0 4.8 2.2c1.9 0 3-1 3-1.9s-.8-1.5-2-1.7l-1.8-.4c-4.3-.8-5.5-2.1-5.5-4.3s2.2-4.9 6-4.9a9.7 9.7 0 0 1 6 2.1l-1.8 2.3a6 6 0 0 0-4.1-1.7c-1.4 0-2.8.7-2.8 1.9s.7 1.4 2 1.6zm-8.9-3a2.3 2.3 0 0 0-2.3 2.3v10h-3.2V17.2h3.1v1.7a3.3 3.3 0 0 1 3-2.1 3.5 3.5 0 0 1 1.8.5l-1.2 3.2a2.1 2.1 0 0 0-1.2-.5zM45.7 30.5h-.1a6.4 6.4 0 0 1-5 2.2 7.8 7.8 0 0 1-7.8-7.9 8.1 8.1 0 0 1 8-8 5.7 5.7 0 0 1 4.8 2.2h.1v-1.8H49v15.1h-3.3zm-4.6-10.6a4.9 4.9 0 1 0 0 9.7 4.9 4.9 0 0 0 0-9.7zm-23.2-2.7h3.6l3.3 8.6h.1l3.4-8.6h3.6l-7 15.5zM8.1 0h2v45.1h-2zM0 0h5.1v45.1H0zm81 32.3h-3.3V17.2H81z" fill="#fff"/></svg>