<svg id="Layer_1" data-name="Layer 1" xmlns="http://www.w3.org/2000/svg" viewBox="0 0 117.32 59.88"><defs><style>.cls-1{fill:#fff;}</style></defs><title>FirstBank-logo</title><path class="cls-1" d="M3.78,46.17H9.07L7.74,47.5v9.83l1.33,1.34H3.78l1.33-1.34V47.5Z"/><path class="cls-1" d="M12.23,57.55l1.13,1.12H9.9L11,57.55V49.37L9.9,48.26h2.89l4.33,6.21v-5.1L16,48.26h3.44l-1.11,1.11V59.88l-6.1-8.82Z"/><path class="cls-1" d="M24.79,57.55l1.13,1.12H21.51l1.11-1.12V49.33H21.17l-1.41,1.42V48.26h7.9v2.49l-1.41-1.42H24.79Z"/><path class="cls-1" d="M35.51,58.67H28.17l1.11-1.12V49.37l-1.11-1.11h7.34v2.49L34.1,49.33H31.45V52.6h1.84l1.11-1.13v3.31l-1.11-1.11H31.45v3.92H34.1l1.41-1.41Z"/><path class="cls-1" d="M44.54,57.55l1.11,1.12h-3L40.27,54h-.74v3.59l1.13,1.12H36.25l1.11-1.12V49.37l-1.11-1.11h4c1.89,0,4,.86,4,2.77a2.83,2.83,0,0,1-2,2.54Zm-5-8.22v3.55h.76A1.76,1.76,0,0,0,41.91,51a1.66,1.66,0,0,0-1.62-1.7Z"/><path class="cls-1" d="M47.77,57.55l1.12,1.12H45.44l1.11-1.12V49.37l-1.11-1.11h2.89l4.32,6.21v-5.1l-1.11-1.11H55l-1.11,1.11V59.88l-6.1-8.82Z"/><path class="cls-1" d="M62.7,58.67H55.37l1.11-1.12V49.37l-1.11-1.11H62.7v2.49l-1.41-1.42H58.65V52.6h1.83l1.11-1.13v3.31l-1.11-1.11H58.65v3.92h2.64l1.41-1.41Z"/><path class="cls-1" d="M68.4,57.55l1.13,1.12H65.12l1.11-1.12V49.33H64.78l-1.41,1.42V48.26h7.9v2.49l-1.41-1.42H68.4Z"/><path class="cls-1" d="M76.25,58.67l1.34-1.34V47.5l-1.34-1.33H81.1c2.16,0,4.49.89,4.49,3.43a3.31,3.31,0,0,1-2.35,2.61,3.54,3.54,0,0,1,3,3.22c0,2.43-2.5,3.24-4.66,3.24Zm3.94-11.21v4.26h.91c1.11,0,1.78-.83,1.78-2.12s-.67-2.14-1.78-2.14Zm1.36,9.91a1.78,1.78,0,0,0,2-1.94,2.21,2.21,0,0,0-2-2.42H80.19v4.36Z"/><path class="cls-1" d="M89.83,58.67H86.3l1.13-1.13,3.31-9.28h1.34l3.23,9.28,1.13,1.13H92l1.09-1.12-.58-1.76H89.35l-.62,1.76Zm-.11-3.94h2.36l-1.14-3.44Z"/><path class="cls-1" d="M98.77,57.55l1.13,1.12H96.44l1.11-1.12V49.37l-1.11-1.11h2.89l4.32,6.21v-5.1l-1.11-1.11H106l-1.11,1.11V59.88l-6.1-8.82Z"/><path class="cls-1" d="M109.65,57.55l1.13,1.12h-4.41l1.11-1.12V49.37l-1.11-1.11h4.41l-1.13,1.11V53l3.69-3.69-1-1h3.46l-4.11,4.11,4.59,6.3h-3.48V57.59l-3.12-4.34Z"/><path class="cls-1" d="M42.56,13.81H53.7l-2.81,2.81V37.29L53.7,40.1H42.56l2.81-2.81V16.62Z"/><path class="cls-1" d="M76.51,37.29l2.81,2.81H71.61L65.73,28.2H63.86v9.09l2.85,2.81H55.57l2.81-2.81V16.62l-2.81-2.81h10.2c4.77,0,10.16,2.19,10.16,7,0,3.52-2.89,5.7-4.94,6.41ZM63.86,16.53v9h1.91c2.36,0,4.1-2.23,4.1-4.68a4.18,4.18,0,0,0-4.1-4.28Z"/><path class="cls-1" d="M96,32.53c0,3.92-2.45,8-8.82,8a14.79,14.79,0,0,1-2.81-.22l-6-1,2.81-5.39,3.29,3.69a4,4,0,0,0,2.41.81,3.94,3.94,0,0,0,4-4.1,3.4,3.4,0,0,0-1.56-3L83,27.45a8,8,0,0,1-4.1-6.69c0-3.52,2.37-7.17,8.07-7.17a17.75,17.75,0,0,1,2.45.22l5.75,1-2.81,5L89.3,16.49a3.74,3.74,0,0,0-2-.63,3.34,3.34,0,0,0-3.43,3,4.62,4.62,0,0,0,2.45,3.7l6.33,3.88A6.87,6.87,0,0,1,96,32.53Z"/><path class="cls-1" d="M110.06,37.29l2.85,2.81H101.77l2.81-2.81V16.53h-3.66L97.36,20.1V13.81h20V20.1l-3.57-3.57h-3.69Z"/><polygon class="cls-1" points="36.78 4.17 42.25 9.64 42.25 0 17.33 0 17.33 40.36 30.9 40.36 26.52 36.05 26.52 21 33.63 21 37.94 25.31 37.94 12.45 33.63 16.83 26.52 16.83 26.52 4.17 36.78 4.17"/><polygon class="cls-1" points="2.72 40.43 16.36 40.43 16.32 0.05 0 7.75 7.82 7.75 7.82 36.14 2.72 40.43"/></svg>