<svg xmlns="http://www.w3.org/2000/svg" viewBox="0 0 293.5 230.5"><path d="M287.8 55.2s-50 11.8-93.2 27.5c-19.2-40-44-80.1-44-80.1-2.1-3.5-5.6-3.5-7.7 0 0 0-24.8 40.1-44 80.1C55.7 67 5.7 55.2 5.7 55.2c-4-.9-6.4 1.5-5.5 5.4 0 0 28.8 122.2 56.1 149.5 24 24 61.8 27.2 89.6 7.7-1 0-2-.1-3-.1 1 .1 2 .1 3 .1h1.7c1 0 1.9-.1 2.9-.1-1 .1-1.9.1-2.9.1 27.7 19.5 65.5 16.3 89.5-7.7 27.3-27.3 56.2-149.5 56.2-149.5.9-3.9-1.6-6.3-5.5-5.4zm-144.4-6c1.8-3.6 4.9-3.6 6.7 0 0 0 10.5 20.3 21.1 42.7-8.5 3.6-16.7 7.9-24.5 12.8-7.8-4.9-15.9-9.2-24.4-12.8 10.6-22.4 21.1-42.7 21.1-42.7zm-7 167.8h-.2.2zm-2.5-.4h-.2.2zm12.8-77.5c6.9 13.3 7.2 29.4 0 43.2-7-13.5-7-29.6 0-43.2zm-17.3-16.8c-12.8 19.5-15 44.1-5.9 65.6-14.3-8.3-23.1-23.5-23.1-40 0-5.2 5-18.4 11.5-33.4 7.2 2.9 12.8 5.4 17.5 7.8zm-56.5 71.2c-11-11-39.4-100.3-39.4-100.3-1.3-3.8.9-6 4.7-4.7 0 0 25.1 8 50.4 17.1-7 16.8-11.7 32-11.7 42.4 0 24.9 13.1 46.7 32.7 59.1-.1-.1-.2-.1-.3-.2-13.5 1-26.8-3.9-36.4-13.4zm39 15c-.3-.2-.7-.4-1-.6.3.2.7.4 1 .6zm28.1 9c.6.1 1.1.1 1.7.1-.6 0-1.2-.1-1.7-.1zm13.1 0c-.3 0-.7.1-1 .1.3 0 .6-.1 1-.1zM260 93.2s-28.5 89.3-39.5 100.3c-9.6 9.6-22.8 14.4-36.3 13.4-.1.1-.2.1-.3.2 19.6-12.4 32.7-34.2 32.7-59.1 0-10.4-4.8-25.6-11.7-42.4-8 3-16.1 6-23.3 8.9 6.5 15 11.5 28.2 11.5 33.5 0 16.5-8.8 31.7-23.1 40 9.1-21.5 6.9-46.2-5.9-65.7 4.7-2.4 10.7-5 17.5-7.8 6.8-2.8 15.3-5.9 23.3-8.9 25.2-9.1 50.3-17.1 50.3-17.1 3.9-1.3 6 .9 4.8 4.7zm-78.2 115.2c.2-.1.5-.3.7-.4-.2.1-.5.2-.7.4z" fill="#fff"/></svg>