<svg xmlns="http://www.w3.org/2000/svg" viewBox="0 0 293.5 230.5"><title>cnc-logo__white</title><path d="M76.9,148c0-10.4,4.7-25.6,11.7-42.4C63.3,96.5,38.2,88.5,38.2,88.5c-3.8-1.3-6,.9-4.7,4.7,0,0,28.4,89.3,39.4,100.3a46.6,46.6,0,0,0,36.4,13.4A69.8,69.8,0,0,1,76.9,148Z" style="fill:#fff"/><path d="M171.2,91.9c-10.6-22.4-21.1-42.7-21.1-42.7-1.8-3.6-4.9-3.6-6.7,0,0,0-10.5,20.3-21.1,42.7a170.2,170.2,0,0,1,24.4,12.8A171.8,171.8,0,0,1,171.2,91.9Z" style="fill:#fff"/><path d="M123.5,187.9a69.7,69.7,0,0,1,5.9-65.6c-4.7-2.4-10.7-5-17.5-7.8-6.5,15-11.5,28.2-11.5,33.4A46.2,46.2,0,0,0,123.5,187.9Z" style="fill:#fff"/><path d="M170,188a46.4,46.4,0,0,0,23.1-40c0-5.3-5-18.5-11.5-33.5-6.8,2.8-12.8,5.4-17.5,7.8A69.9,69.9,0,0,1,170,188Z" style="fill:#fff"/><path d="M146.7,182.3a46.5,46.5,0,0,0,0-43.2A47.1,47.1,0,0,0,146.7,182.3Z" style="fill:#fff"/><path d="M184.2,206.9a46.3,46.3,0,0,0,36.3-13.4c11-11,39.5-100.3,39.5-100.3,1.2-3.8-.9-6-4.8-4.7,0,0-25.1,8-50.3,17.1,6.9,16.8,11.7,32,11.7,42.4A70,70,0,0,1,184.2,206.9Z" style="fill:#fff"/><path d="M287.8,55.2s-50,11.8-93.2,27.5c-8.2,2.9-16.1,6-23.4,9.2a171.8,171.8,0,0,0-24.5,12.8,51.2,51.2,0,0,1,8.4,6.6,72.1,72.1,0,0,1,9,11c4.7-2.4,10.7-5,17.5-7.8s15.3-5.9,23.3-8.9c25.2-9.1,50.3-17.1,50.3-17.1,3.9-1.3,6,.9,4.8,4.7,0,0-28.5,89.3-39.5,100.3a46.3,46.3,0,0,1-36.3,13.4,70.5,70.5,0,0,1-36.6,10.9,69.8,69.8,0,0,0,89.5-7.7c27.3-27.3,56.2-149.5,56.2-149.5C294.2,56.7,291.7,54.3,287.8,55.2Z" style="fill:#fff"/><path d="M155,193.5a49.3,49.3,0,0,1-8.3-11.2,47.1,47.1,0,0,1,0-43.2,46,46,0,0,0-8.2-11.2,40.9,40.9,0,0,0-9.1-5.6,69.7,69.7,0,0,0-5.9,65.6,45.2,45.2,0,0,0,15,5.6,43.8,43.8,0,0,0,8.2.8,44.9,44.9,0,0,0,8.3-.8Z" style="fill:#fff"/><path d="M164.1,122.3a72.1,72.1,0,0,0-9-11,51.2,51.2,0,0,0-8.4-6.6,170.2,170.2,0,0,0-24.4-12.8c-7.3-3.2-15.2-6.3-23.4-9.2C55.7,67,5.7,55.2,5.7,55.2c-4-.9-6.4,1.5-5.5,5.4,0,0,28.8,122.2,56.1,149.5a69.9,69.9,0,0,0,89.6,7.7,70.2,70.2,0,0,1-36.6-10.9,46.6,46.6,0,0,1-36.4-13.4c-11-11-39.4-100.3-39.4-100.3-1.3-3.8.9-6,4.7-4.7,0,0,25.1,8,50.4,17.1,8,3,16.1,6,23.3,8.9s12.8,5.4,17.5,7.8a40.9,40.9,0,0,1,9.1,5.6,46.6,46.6,0,0,1,8.2,54.4,49.3,49.3,0,0,0,8.3,11.2h0a47.3,47.3,0,0,0,15-5.5A69.9,69.9,0,0,0,164.1,122.3Z" style="fill:#fff"/><path d="M204.9,105.6c-8,3-16.1,6-23.3,8.9,6.5,15,11.5,28.2,11.5,33.5A46.4,46.4,0,0,1,170,188a47.3,47.3,0,0,1-15,5.5,44.9,44.9,0,0,1-8.3.8,43.8,43.8,0,0,1-8.2-.8,45.2,45.2,0,0,1-15-5.6,46.2,46.2,0,0,1-23.1-40c0-5.2,5-18.4,11.5-33.4-7.2-2.9-15.3-5.9-23.3-8.9-7,16.8-11.7,32-11.7,42.4a69.9,69.9,0,0,0,69,69.8h1.7a69.9,69.9,0,0,0,69-69.8C216.6,137.6,211.8,122.4,204.9,105.6Z" style="fill:#fff"/><path d="M143.4,49.2c1.8-3.6,4.9-3.6,6.7,0,0,0,10.5,20.3,21.1,42.7,7.3-3.2,15.2-6.3,23.4-9.2-19.2-40-44-80.1-44-80.1-2.1-3.5-5.6-3.5-7.7,0,0,0-24.8,40.1-44,80.1,8.2,2.9,16.1,6,23.4,9.2C132.9,69.5,143.4,49.2,143.4,49.2Z" style="fill:#fff"/></svg>