<svg xmlns="http://www.w3.org/2000/svg" viewBox="0 0 175.8 182.1"><path d="M76.6 28.4a13.1 13.1 0 0 1-9.2 12.5 28.4 28.4 0 1 0 0-25.1 13.3 13.3 0 0 1 9.2 12.6z" fill="none"/><path d="M88.1 46.1a51.4 51.4 0 1 0 51.3 51.4 51.3 51.3 0 0 0-51.3-51.4zm0 95.3A44 44 0 1 1 132 97.5a43.9 43.9 0 0 1-43.9 43.9z" fill="none" stroke="#231f20"/><path d="M139.4 97.5h.4a51.8 51.8 0 1 0-51.7 51.7 51.7 51.7 0 0 0 51.7-51.7h-.8a50.9 50.9 0 1 1-14.9-36 50.6 50.6 0 0 1 14.9 36z" fill="#231f20"/><circle cx="88.1" cy="97.5" r="43.9" transform="rotate(-3 89.152 97.871)" fill="none"/><path d="M132 97.5h.5a44.4 44.4 0 1 0-44.4 44.4 44.4 44.4 0 0 0 44.4-44.4h-1a43.4 43.4 0 1 1-12.7-30.8 43.3 43.3 0 0 1 12.7 30.8z" fill="#fff"/><path fill="#231f20" opacity=".5" d="M78.3 89.7l9.6-60.9v60l-9.6.9z"/><path fill="#fff" d="M98 89.7l-9.6-60.9v60l9.6.9z"/><path fill="#fff" d="M98 89.7l.5-.1-9.7-60.9-.9.1v60.4l10.7 1.1-.1-.7-.5.1.1-.5-9.3-.8V34.8l8.7 55 .5-.1.1-.5-.1.5zm-16.1-23l-14.2-8.4 11.8 26.9 2.4-18.5z"/><path fill="#231f20" opacity=".5" d="M67.3 58.1l.4 18.4 10.5 11.4 2.3-.9-13.2-28.9z"/><path fill="#fff" d="M68.3 77L50 75.6l30.1 14.5L68.3 77z"/><path fill="#231f20" opacity=".5" d="M50 75.6l9 16.1 20.1-2L50 75.6zm45.1 11.1l60.9 9.6H96l-.9-9.6z"/><path fill="#fff" d="M95.1 106.4l60.9-9.6H96l-.9 9.6z"/><path fill="#fff" d="M95.1 106.4v.5l61-9.7-.1-.9H95.6L94.5 107l.6-.1v-.5l.4.1.9-9.2H150L95 106l.1.4.4.1-.4-.1zm23-16.1l8.3-14.2-26.8 11.8 18.5 2.4z"/><path fill="#231f20" opacity=".5" d="M126.7 75.7l-18.4.4-11.4 10.5.9 2.3 28.9-13.2z"/><path fill="#fff" d="M107.8 76.7l1.4-18.3-14.5 30.1 13.1-11.8z"/><path fill="#231f20" opacity=".5" d="M109.2 58.4l-14.5 9 .4 20.1 14.1-29.1zM98.4 105l-9.6 60.9v-60l9.6-.9z"/><path fill="#fff" d="M78.7 105l9.6 60.9v-60l-9.6-.9z"/><path fill="#fff" d="M78.7 105h-.5l9.6 61 1-.1v-60.5l-10.7-1 .1.6h.5l-.1.4 9.2.9v53.5l-8.7-54.9-.4.1-.1.4.1-.4zm16.1 23l14.2 8.3-11.9-26.8-2.3 18.5z"/><path fill="#231f20" opacity=".5" d="M109.4 136.6l-.4-18.5-10.5-11.3-2.3.9 13.2 28.9z"/><path fill="#fff" d="M108.4 117.7l18.3 1.4-30.1-14.5 11.8 13.1z"/><path fill="#231f20" opacity=".5" d="M126.7 119.1l-9-16.1-20.1 2 29.1 14.1zM81.6 108l-60.9-9.6h60l.9 9.6z"/><path fill="#fff" d="M81.6 88.3l-60.9 9.6h60l.9-9.6z"/><path fill="#fff" d="M81.6 88.3l-.1-.5-60.9 9.6.1 1h60.4l1-10.7-.6.1.1.5-.5-.1-.8 9.2H26.7l55-8.7-.1-.4-.5-.1.5.1zm-23 16.1l-8.4 14.2 26.9-11.9-18.5-2.3z"/><path fill="#231f20" opacity=".5" d="M50 119l18.4-.4 11.4-10.5-.9-2.3L50 119z"/><path fill="#fff" d="M68.9 118l-1.4 18.3L82 106.2 68.9 118z"/><path fill="#231f20" opacity=".5" d="M67.5 136.3l14.5-9-.4-20.1-14.1 29.1z"/><path d="M88.1 84.3a13.2 13.2 0 1 0 13.2 13.2 13.2 13.2 0 0 0-13.2-13.2zm0 20.2a7.1 7.1 0 1 1 7-7 7 7 0 0 1-7 7zM2.5 95.2a2.9 2.9 0 0 1 .8-1.9 2.6 2.6 0 0 1 2-.7 3 3 0 0 1 2 .8 2.9 2.9 0 0 1 .7 2 2.6 2.6 0 0 1-.8 1.9 2.7 2.7 0 0 1-2 .8 2.7 2.7 0 0 1-2-.9 2.7 2.7 0 0 1-.7-2zm5.6-15.6l4.7 1.2h.5l.3-.4h.3l-1 4.1h-.3c0-.3 0-.4-.1-.5s-.2-.2-.4-.3l-11-2.8H.7l-.4.4H0l2.9-11.6a.5.5 0 0 0 0-.5c0-.1-.2-.2-.4-.3v-.3l3.3.8v.3a.8.8 0 0 0-.6.2c-.1 0-.2.2-.2.4l-2 8 3.1.8 1.3-5.3c.1-.2.1-.3 0-.4s-.2-.3-.4-.4v-.3l3.3.8v.3h-.6a.8.8 0 0 0-.2.5zm1.2-24.7a7.6 7.6 0 0 1 4.3-4 6.3 6.3 0 0 1 5.5.5 6.5 6.5 0 0 1 2.6 2.6c1.3 2.2 1.2 4.7-.3 7.4a7.7 7.7 0 0 1-4.3 3.9 5.7 5.7 0 0 1-2.9.4 7.3 7.3 0 0 1-2.5-.8A7 7 0 0 1 9 62.2c-1.3-2.1-1.2-4.6.3-7.3zm2 1a4.6 4.6 0 0 0-.5 3.4 4 4 0 0 0 2.3 2.9 4.7 4.7 0 0 0 3.8.4 4.7 4.7 0 0 0 2.5-2.3 4.3 4.3 0 0 0 .5-3.3 3.1 3.1 0 0 0-.9-1.8 4.1 4.1 0 0 0-1.4-1.2 4.7 4.7 0 0 0-3.8-.4 4.7 4.7 0 0 0-2.5 2.3zM28.4 32l5.4 5.2a5.3 5.3 0 0 1 1.8 2.7c.3 1.6-.6 3.4-2.6 5.5a9.7 9.7 0 0 1-4.1 2.9 3 3 0 0 1-2.1-.2 4.9 4.9 0 0 1-2-1.3l-5.5-5.2-.4-.2-.5.2-.3-.2 2.9-3.1.2.3a.9.9 0 0 0-.1.5.8.8 0 0 0 .2.4l4.9 4.6 1.3 1.1 1 .2a4.1 4.1 0 0 0 2.9-1.6 4.7 4.7 0 0 0 1.5-3 1.8 1.8 0 0 0-.4-1l-1.1-1.3-4.8-4.5a.6.6 0 0 0-.5-.2c-.1-.1-.3 0-.5.1l-.2-.2 2.7-2.8.2.2c-.1.2-.2.4-.1.5a.4.4 0 0 0 .2.4zM42 30.2l2.3 3.8.3.3h.6l.2.3-3.6 2.2-.2-.3c.2-.2.3-.3.3-.5a.6.6 0 0 0-.1-.4l-5.9-9.7-.3-.3H35l-.2-.3 7.2-4.4a10.8 10.8 0 0 1 2.1-1.1 5.1 5.1 0 0 1 1.7-.3 5.8 5.8 0 0 1 1.7.6 4.1 4.1 0 0 1 1.2 1.4c1.1 1.8.8 3.5-1.1 5.1l4.1 1.8 1.5.5a1.4 1.4 0 0 0 .9-.1v.3L50 31.6v-.3c.2-.2.3-.4.2-.6l-.8-.4-4.4-2zm-1.2-1.9l3.9-2.3 1.1-.8.6-.6a1.6 1.6 0 0 0-.2-1.6 1.5 1.5 0 0 0-1.4-.9l-.7.2-1.3.7-3.8 2.3zm37.7-11.1l2.4 2.3-.2.3a.6.6 0 0 0-.5-.2l-.9.6a15 15 0 0 1-2.5 1.9 13.4 13.4 0 0 1-2.6.8 8.7 8.7 0 0 1-5.4-.5 6.6 6.6 0 0 1-2.3-1.7 8 8 0 0 1-1.4-3.1 6.6 6.6 0 0 1 .6-4.4 7.7 7.7 0 0 1 5.8-3.8 9.4 9.4 0 0 1 2.8-.2 10.5 10.5 0 0 1 3 .7l1.1.3.4-.4.2.2-1.3 3.1-.3-.2v-.2a.5.5 0 0 0-.3-.5l-1-.4a8.1 8.1 0 0 0-3.8-.3 5.3 5.3 0 0 0-3.3 1.8 4.3 4.3 0 0 0-.9 3.8 4.2 4.2 0 0 0 2.2 3.1 5.3 5.3 0 0 0 3.8.4 7.1 7.1 0 0 0 3.4-1.6 2.3 2.3 0 0 0 .7-.8.7.7 0 0 0 .2-.6.3.3 0 0 1-.1-.2zM94.2 8a7.7 7.7 0 0 1 5.4 2.3 6.1 6.1 0 0 1 1.8 5.2 7.3 7.3 0 0 1-1.2 3.5c-1.5 2.1-3.8 3-6.9 2.8a7.5 7.5 0 0 1-5.3-2.3 5.8 5.8 0 0 1-1.5-2.5 7.5 7.5 0 0 1-.4-2.6 7.1 7.1 0 0 1 1.3-3.6c1.5-2 3.7-3 6.8-2.8zm-.1 2.3a4.6 4.6 0 0 0-3.3.9 4.5 4.5 0 0 0-1.7 3.4 4.4 4.4 0 0 0 1.3 3.6 4.6 4.6 0 0 0 3.1 1.3 4.4 4.4 0 0 0 3.2-.9A3.4 3.4 0 0 0 98 17a4.8 4.8 0 0 0 .5-1.7 4.4 4.4 0 0 0-1.3-3.7 4.6 4.6 0 0 0-3.1-1.3zm17.1 8.9l-1.4 4.2v.4a.8.8 0 0 0 .4.4v.3l-4-1.3v-.3h.6l.3-.4 3.6-10.7v-.4a.8.8 0 0 0-.4-.4v-.3l7.9 2.6a9.3 9.3 0 0 1 2.2 1 3.4 3.4 0 0 1 1.3 1 3.6 3.6 0 0 1 .7 1.7 5.7 5.7 0 0 1-.3 1.8c-.7 2.1-2.2 2.9-4.6 2.5l1.3 4.3a8.1 8.1 0 0 0 .5 1.5 2 2 0 0 0 .7.6v.2l-4.6-1.5V26a.4.4 0 0 0 .6-.2 2.3 2.3 0 0 0-.2-.9l-1.3-4.6zm.7-2.1l4.3 1.4 1.3.4a1.1 1.1 0 0 0 .8 0 1.5 1.5 0 0 0 1.2-1.1 1.7 1.7 0 0 0-.2-1.6 1.8 1.8 0 0 0-.7-.5l-1.3-.5-4.2-1.4zm20.1 7.1l-4.5 6.7a.9.9 0 0 0-.1.5.9.9 0 0 0 .3.5l-.2.2-3.3-2.1.2-.3h.6l.3-.3 6.3-9.4a1.1 1.1 0 0 0 .1-.5.9.9 0 0 0-.3-.5l.2-.2 3.8 2.5-.2.2a.4.4 0 0 0-.6.2.7.7 0 0 0-.1.5l1.9 10.5 4.4-6.6c.1-.2.2-.3.2-.5l-.3-.4.2-.3 3.2 2.2v.2h-.6l-.4.3-6.2 9.4c-.1.1-.2.3-.1.4s.1.3.2.5l-.2.3-3.5-2.2v-.3c.3.1.5.1.6-.1s.1-.4 0-.9zm15.6 16.6l-2.8 2.4 5.8 6.4.4.2c.1.1.3 0 .5-.1l.2.2-2.6 2.3-.2-.2a1.7 1.7 0 0 0 .2-.5.8.8 0 0 0-.2-.4l-8-9.1.2-.2a.6.6 0 0 0 .5.2l.4-.2 8.5-7.5a.8.8 0 0 0 .2-.4 1.1 1.1 0 0 0-.1-.5l.2-.2 7.9 8.8c.1.2.3.2.4.3l.5-.2.2.3-2.5 2.3-.2-.3a1.7 1.7 0 0 0 .2-.5.8.8 0 0 0-.2-.4l-5.6-6.2-2.3 2.1 3.6 4a.5.5 0 0 0 .4.2c.1.1.3 0 .5-.1l.2.2-2.5 2.3-.2-.3a.8.8 0 0 0 .2-.5c0-.1-.1-.2-.2-.4zm11.5 15.9l-4 2.1-.3.3v.6h-.3l-1.9-3.7h.3a.5.5 0 0 0 .4.3h.5l10-5.2c.2-.1.3-.2.3-.4a.4.4 0 0 0 0-.5l.3-.2 3.9 7.4a14.6 14.6 0 0 1 .9 2.2 3.5 3.5 0 0 1 .2 1.7 2.8 2.8 0 0 1-.7 1.7 4 4 0 0 1-1.4 1.1c-1.9 1-3.6.6-5-1.4l-2.1 4a3.7 3.7 0 0 0-.6 1.5 1.1 1.1 0 0 0 0 .8h-.2l-2.3-4.2.3-.2q.3.5.6.3c.1 0 .2-.3.5-.8l2.2-4.2zm1.9-1l2.1 4a5.4 5.4 0 0 0 .7 1.2 3.4 3.4 0 0 0 .6.6 1.8 1.8 0 0 0 2.5-1.4 2.5 2.5 0 0 0-.1-.8l-.6-1.2-2.1-4zm14.7 27l-3.4-.8v-.3h.1c.2 0 .4-.3.6-.7a7.7 7.7 0 0 0 .2-4.3 8.7 8.7 0 0 0-.7-1.7 1.8 1.8 0 0 0-.8-.7 1.5 1.5 0 0 0-.9-.2 1 1 0 0 0-.8 1.1c0 .4.1 1 .2 2.1l.2 1.5c.1.9.2 1.7.2 2.2a8.5 8.5 0 0 1-.4 1.7 3.8 3.8 0 0 1-.9 1.3 4.8 4.8 0 0 1-1.6.8 3.9 3.9 0 0 1-2.6-.3 5.3 5.3 0 0 1-2.1-2.1 20 20 0 0 1-1-2.6 12.3 12.3 0 0 1 0-5.4 2.6 2.6 0 0 0 .1-.7l-.3-.4v-.3l3.5.7v.3h-.1a1.3 1.3 0 0 0-.7.6 5.6 5.6 0 0 0-.4 2.1 7.2 7.2 0 0 0 .2 2.6 5.3 5.3 0 0 0 .9 2 2.7 2.7 0 0 0 .8.7h.9a1.2 1.2 0 0 0 .8-1 9.7 9.7 0 0 0-.2-2l-.2-1.5c-.1-1-.2-1.7-.2-2.1a6.8 6.8 0 0 1 .2-1.4 3.3 3.3 0 0 1 2.6-2.5 3.9 3.9 0 0 1 3 .4 7.2 7.2 0 0 1 2.5 4.1 10.5 10.5 0 0 1 .3 2.4 17.8 17.8 0 0 1-.3 2.9 3.2 3.2 0 0 0-.1.7.8.8 0 0 0 .4.4zm-1.6 13.6a2.9 2.9 0 0 1-.8 1.9 3 3 0 0 1-2 .8 2.4 2.4 0 0 1-1.9-.8 2.3 2.3 0 0 1-.9-1.9 3 3 0 0 1 .8-2 2.7 2.7 0 0 1 1.9-.8 2.4 2.4 0 0 1 2 .8 2.9 2.9 0 0 1 .9 2zm-162.3 18l-9.7 2.9-.4.3a4.3 4.3 0 0 0-.1.5h-.3l-1.2-4h.3c.2.2.3.4.4.4h.5l9.7-2.9-1.2-3.9c0-.2-.1-.4-.2-.4H9v-.3l3.3-1v.3l-.4.4v.4l3.2 10.8.3.4h.5v.3l-3.3.9v-.3l.4-.3a.5.5 0 0 0 0-.5zm.9 20.8l-2.9-5.3H7.1c-.3.2-.4.4-.3.9h-.2l-2.2-3.8.3-.2.5.4h.9l11.4-.7.8-.2c.2-.1.3-.4.3-.8h.2l2.3 4.1-.3.2a.6.6 0 0 0-.7-.3l-.5.5-6.6 9.7-.5.9a2.2 2.2 0 0 0 .1.8h-.3L9.9 137h.3c.3.3.6.4.8.2s.3-.2.5-.4zm1.2-1.6l3.1-4.2-5.2.3zm9.1 14.9l8.3-2.5.7-.4c.2-.1.2-.4 0-.8l.2-.2 3 3.4-.2.2-.6-.3-1.2.3-10.5 3.1-.8.4a.5.5 0 0 0-.1.8l-.2.2-3-3.4.2-.2a.6.6 0 0 0 .9.1l.4-.8 4.4-10.1.4-1.1a.7.7 0 0 0-.2-.6l.2-.2 3.2 3.5-.3.2c-.3-.2-.6-.3-.8-.1a1.4 1.4 0 0 0-.4.7zm14.3 10.5l-2.1 3 7.1 4.9a.4.4 0 0 0 .4.2c.2 0 .3-.1.5-.3l.3.2-2 2.8h-.3c.1-.3.2-.5.1-.6l-.3-.4-9.9-6.9.2-.2h.5a.5.5 0 0 0 .4-.3l6.4-9.2c.1-.2.2-.3.2-.5a.9.9 0 0 0-.3-.5l.2-.2 9.7 6.8h.5l.5-.2h.2l-1.9 2.9-.3-.2a1.3 1.3 0 0 0 .1-.6l-.3-.3-6.8-4.8-1.9 2.6 4.5 3.1c.1.1.3.2.4.1l.5-.2.3.2-2 2.7H42a1.8 1.8 0 0 0 .1-.6l-.3-.4zm17.4 10.6l-1.6 4.1v.5l.4.4v.3l-3.9-1.5v-.3h.5a.3.3 0 0 0 .3-.3l4.1-10.7c0-.2.1-.3 0-.5l-.4-.4.2-.3 7.7 3 2.2 1a3.8 3.8 0 0 1 1.3 1.2 4.3 4.3 0 0 1 .6 1.7 3.9 3.9 0 0 1-.4 1.8c-.7 2-2.3 2.8-4.7 2.3l1.1 4.3a8.1 8.1 0 0 0 .5 1.5.9.9 0 0 0 .6.6v.3l-4.5-1.7v-.3a.4.4 0 0 0 .6-.2 4.4 4.4 0 0 0-.1-.9l-1.1-4.7zm.8-2.1l4.2 1.6 1.3.5h.8a1.4 1.4 0 0 0 1.2-1.1 1.5 1.5 0 0 0-.1-1.6l-.6-.5-1.3-.5-4.2-1.7zm20 4.3l-.9 8.1c-.1.2 0 .4 0 .5l.5.3v.3l-3.9-.5v-.3l.5-.2a.5.5 0 0 0 .2-.4l1.3-11.2a.7.7 0 0 0-.1-.5l-.5-.3v-.3l4.5.5v.3c-.2.1-.4.2-.4.4a.7.7 0 0 0 .2.6l6.4 8.4.9-7.9c0-.2 0-.3-.1-.4l-.4-.3v-.3l3.9.4v.3a.6.6 0 0 0-.5.2.5.5 0 0 0-.2.4L85.6 181a.7.7 0 0 0 .1.5l.4.3v.3l-4.2-.4v-.3c.2-.1.4-.2.4-.4a1.3 1.3 0 0 0-.4-.7zm40.3 1.3l-3.1.8-.5.3a4.3 4.3 0 0 0-.1.5h-.3l-.8-3h.3c.2.2.3.4.4.4h.5l6.1-1.6v.3a.7.7 0 0 0-.5.4v.4l.7 2.7.3.4h.5v.2a14.5 14.5 0 0 1-6.6 4 7.6 7.6 0 0 1-5.4-.1 6.4 6.4 0 0 1-3.9-4.5 5.9 5.9 0 0 1 .9-5.5 8.9 8.9 0 0 1 5.1-3.2 7.8 7.8 0 0 1 2.1-.4h3.4a.5.5 0 0 0 .4-.3h.3l-.7 3.5h-.3c-.1-.3-.1-.4-.2-.5l-.4-.2a5 5 0 0 0-1.9-.3 7.8 7.8 0 0 0-2.2.3 4.6 4.6 0 0 0-3 2 4.7 4.7 0 0 0 1.7 6.7 5.4 5.4 0 0 0 3.8.2 13.1 13.1 0 0 0 2.1-.8l1.6-1.2zm12.8-6.1l2.2 3.8c.1.2.2.3.4.3h.5l.2.3-3.7 2v-.2a.9.9 0 0 0 .3-.5 1.1 1.1 0 0 0-.1-.5l-5.6-9.8-.3-.3h-.6v-.3l7.2-4.1 2.2-1a3.3 3.3 0 0 1 1.7-.2 2.5 2.5 0 0 1 1.6.6 3.3 3.3 0 0 1 1.2 1.4q1.7 2.8-1.2 5.1l4 1.9 1.5.6h.9v.2l-4.2 2.4v-.2c.2-.3.3-.4.2-.6s-.3-.3-.8-.5l-4.3-2.1zm-1.1-2l4-2.2 1.1-.7a3.4 3.4 0 0 0 .6-.6 1.4 1.4 0 0 0-.1-1.6 1.5 1.5 0 0 0-1.3-.9h-.8l-1.3.7-3.9 2.2zm15.7-18.4a8.4 8.4 0 0 1 5.3-2.5 6.7 6.7 0 0 1 5.1 2.2 5.9 5.9 0 0 1 1.7 3.3c.5 2.5-.3 4.8-2.5 6.9a7.9 7.9 0 0 1-5.3 2.5 7.2 7.2 0 0 1-2.9-.6 8 8 0 0 1-2.1-1.5 6 6 0 0 1-1.8-3.4c-.5-2.4.3-4.7 2.5-6.9zm1.6 1.6a4.8 4.8 0 0 0-1.5 3 4.4 4.4 0 0 0 1.3 3.6 4.9 4.9 0 0 0 3.5 1.5 4.3 4.3 0 0 0 3.1-1.4 4.8 4.8 0 0 0 1.5-3 3.4 3.4 0 0 0-.3-2 3.1 3.1 0 0 0-1-1.5 4.6 4.6 0 0 0-3.5-1.6 4.9 4.9 0 0 0-3.1 1.4zm15.4-22l6.4 3.9a5 5 0 0 1 2.3 2.3c.6 1.5.1 3.5-1.4 6a10 10 0 0 1-3.5 3.6 3.9 3.9 0 0 1-2.1.3 8.4 8.4 0 0 1-2.2-1l-6.4-3.9h-.5l-.4.3-.3-.2 2.2-3.5h.3a1.5 1.5 0 0 0-.1.6l.3.3 5.7 3.5 1.5.8a2.1 2.1 0 0 0 1.1.1 4.5 4.5 0 0 0 2.5-2.2 3.1 3.1 0 0 0 .3-4.2l-1.4-1-5.7-3.4-.4-.2-.5.3h-.3l2.1-3.4.2.2v.5zm10.3-7.1l4.2 1.4h.5l.3-.4h.3l-1.2 3.9h-.3a.7.7 0 0 0-.1-.5l-.4-.3-10.8-3.4a.3.3 0 0 0-.4 0c-.2 0-.3.2-.4.4h-.3l2.5-7.9a9.8 9.8 0 0 1 .9-2.2 4.3 4.3 0 0 1 1.1-1.2 3.8 3.8 0 0 1 1.6-.6 3.7 3.7 0 0 1 1.8.2 3.5 3.5 0 0 1 2 1.4 3.2 3.2 0 0 1 .7 1.9 13.5 13.5 0 0 1-.5 2.9zm-2.1-.6l1.4-4.3a8.2 8.2 0 0 0 .3-1.8 1.6 1.6 0 0 0-.4-.7 1.8 1.8 0 0 0-.8-.5h-.9l-.8.4a3.8 3.8 0 0 0-.8 1.6l-1.4 4.3z" fill="#231f20"/></svg>