<svg xmlns="http://www.w3.org/2000/svg" viewBox="0 0 578.2 192.3"><path fill="#fff" d="M94.2 120.7l122.1-91.2 125.1 91.1h-69.5l-80.4-57.7-80.3 57.7-17 .1zm137.5-91.2L270.2 0l167.1 120.6h-75.7L231.7 29.5z"/><path fill="#fff" d="M127.4 120.6l63.4-45.5 66.4 45.5H127.4z"/><path d="M87.9 141.2a32.9 32.9 0 0 0-16.9-7.3c-10.3-1.1-15.1-.7-15.1-.7H0v19h51.7c5.2 0 8.7-.1 12.1 1.2s4.2 4.4 4.5 6.7c.7 5.7-1 13.1-5.6 14.1s-37.9.8-37.9.8v-20.3H0v37.6h57.4s15.2-.3 18.3-.7c22.1-2.5 25.6-38.1 12.2-50.4zm98.4-7.4l.1 17.4-76.8-.1.1-17.3h76.6zm82.7.1c4.5.1 7.4.1 10.5.3 5.4.4 10.2 1.7 13.5 3.9 7.9 5.2 8.6 8.5 8.7 21.3 0 11.1-.1 32.2-.1 32.2h-26.8s.1-14.1.1-21.8.4-14-6.3-16c-4.8-1.3-10.3-1.4-16.6-1.4h-19.8v39.2H203v-57.8s40.8-.7 66 .1zm85.8 1.6H385l45.6 56.1h-31.8l-44-56.1zm79.6-.1h25.9l.1 40.4h55.2l-.1 16-81.3-.1.2-56.3zm113.2.1l.2 17.1-22.5.1v-17.2h22.3zm-183.2 19.1l-14.3 19.9 33.1.1-.1 17.2-77.6-.1 44.4-54.9 14.5 17.8zM110 156l76.4-.1v13.7h-49.7v4.4h49.6l.1 17.9-76.5-.1.1-35.8zm437.6 2.6l.1 33.1h-22.4l.1-33 22.2-.1z" fill="#fff" fill-rule="evenodd"/><path fill="#fff" d="M354.6 135.4h109.3m-281.4-1.6h85.3"/><path d="M570.6 121.2c-4.2 0-7.6 3-7.6 6.8s3.4 6.8 7.6 6.8 7.6-3 7.6-6.8-3.4-6.8-7.6-6.8zm0 12.3c-3.4 0-6.1-2.4-6.1-5.5s2.7-5.5 6.1-5.5 6.2 2.5 6.2 5.5-2.8 5.5-6.2 5.5z" fill="#fff" fill-rule="evenodd"/><path d="M568.5 124.7h1.8a2.7 2.7 0 0 1 2.1.6 1.6 1.6 0 0 1 .6 1.3 2 2 0 0 1-1.4 1.9c.6.2.9.7 1.1 1.5a18.2 18.2 0 0 0 .5 2h-.9a5.8 5.8 0 0 1-.5-1.8 1.4 1.4 0 0 0-1.5-1.4h-.9v3.2h-.9zm.9 3.3h1c1 0 1.6-.5 1.6-1.4s-.7-1.3-1.6-1.3h-1z" fill="#fff"/></svg>