<svg xmlns="http://www.w3.org/2000/svg" viewBox="0 0 385.2 54.9"><path d="M104.8 47.8H93.1l-7.4-10.5h-5.6v10.5H69.9V9.1h16.7c10 0 15.1 1.7 15.1 14 0 7.6-2 10.6-5.9 11.8zM86.6 29.1c3.4 0 4.8-1.1 4.8-5.9s-1.7-5.8-4.8-5.8h-6.5v11.7zm26.3-20h27.7V18h-17.4v6h14.1v8.8h-14.1v6.4h17.4v8.6h-27.7zm47.8 8.9h-12.3V9.1h34.9V18H171v29.8h-10.3zm65.7 29.8h-11.7l-7.3-10.5h-5.7v10.5h-10.2V9.1h16.8c9.9 0 15 1.7 15 14 0 7.6-2 10.6-5.8 11.8zm-18.1-18.7c3.3 0 4.7-1.1 4.7-5.9s-1.7-5.8-4.8-5.8h-6.5v11.7zm23.9-.6c0-17 7.6-20 19.1-20s19 2.9 19 19.9-7.5 20-19.1 20-19-3-19-19.9zm27.3 1.5v-3.1c0-7.3-1.8-9.7-8.3-9.7s-8.2 2.3-8.2 9.6v3.1c0 7.3 1.9 10 8.3 10s8.2-2.6 8.2-9.9zm20-20.9h27.7V18h-17.4v8.3h14v8.4h-14v13.1h-10.3zm36 0h10.3v38.7h-10.3zm30.9 8.9h-12.3V9.1h35V18h-12.4v29.8h-10.3zM46.2 0H8.7A8.7 8.7 0 0 0 0 8.7v37.5a8.7 8.7 0 0 0 8.7 8.7h37.5a8.7 8.7 0 0 0 8.7-8.7V8.7A8.7 8.7 0 0 0 46.2 0zm-.5 23h-6.6a12.7 12.7 0 0 1 0 3.9 17.6 17.6 0 0 1-1.1 4h5.9v5.5h-9.2l4.4 8.3h-7.2l-4.5-8.2h-4.6l-1.4 8.4h-6.9l1.3-8.4H8.9v-5.6h7.8L18 23h-7.3v-5.4h8L20 9.4h7l-1.3 8.2h6.6l1.4-8.2h6.9l-1.3 8.2h6.4z" fill="#fff"/><path d="M29.3 23.1h-4.4l-1.2 7.8h4.4c2.3 0 3.4-.7 3.9-3.9s-.5-3.9-2.7-3.9zm345.2-8.5v-.7l1.7.2c.8 0 1.2-.1 1.2-.9s-.2-.7-1.2-.9-1.8-.6-1.8-1.7.7-1.5 1.9-1.5l1.7.2-.2.7h-1.5c-.7 0-1.1.1-1.1.7s.3.8 1.2 1 1.8.4 1.8 1.6-.7 1.6-2 1.6zm7.7.1l-1.7-3.9v3.9h-.7V9.2h.8l1.9 4.5 1.9-4.5h.8v5.5h-.7v-3.9l-1.7 3.9z" fill="#fff"/></svg>