<svg xmlns="http://www.w3.org/2000/svg" viewBox="0 0 161.1 227.9"><path d="M25.1 218.9c-1.3 5.3-4.2 9-10.1 9s-10.9-4.7-10.9-14.8 4-14.7 10.9-14.7c5.3 0 8.4 3.1 9.7 8.3l-2.9.9c-1.1-4-2.9-6.5-7.2-6.5s-7.4 3.8-7.4 12 3.3 12.1 8.1 12.1 6.1-3.4 6.9-6.9zM49.9 198.8v28.7h-3.2v-13.7H33v13.7h-3.2v-28.7H33v12.3h13.7v-12.3zM61.2 198.8v28.7H58v-28.7zM87.8 218.9c-1.3 5.3-4.2 9-10.1 9s-10.9-4.7-10.9-14.8 4-14.7 10.9-14.7c5.3 0 8.4 3.1 9.7 8.3l-2.9.9c-1.1-4-2.9-6.5-7.2-6.5s-7.4 3.8-7.4 12 3.3 12.1 8.1 12.1 6.1-3.4 7-6.9zM89.2 227.5l8.8-28.7h4.7l8.8 28.7h-3.3l-2.7-9H95.2l-2.7 9zm6.8-11.7h8.7l-4.1-14.8h-.5zM134.6 213.7v13.8H132v-2.7h-.1c-1.4 2.1-4.3 3.1-7.5 3.1-6.5 0-11.2-4.7-11.2-14.8s4.7-14.7 11.2-14.7c4.9 0 8.6 2.3 10.4 8.4l-3.1.6c-1.4-4.6-3.8-6.3-7.1-6.3s-8.2 2.8-8.2 12 4 12.1 8.2 12.1 6.9-2.9 6.9-6.4v-2.4H125v-2.7zM149.9 198.4c7 0 11.2 5.2 11.2 14.7s-4.2 14.8-11.2 14.8-11.2-5.2-11.2-14.8 4.2-14.7 11.2-14.7zm0 26.8c5 0 8-3.9 8-12.1s-3-12-8-12-8 3.9-8 12 3 12.1 8 12.1zM31 141.9v8.1H20.4v39.5h-9.1V150H.7v-8.1zM35 189.5v-47.6h9.1v19H57v-19h9.1v47.6H57V169H44.1v20.5zM73.4 189.5v-47.6h9.1v47.6zM89.9 189.5v-47.6h9.9l12.7 28.2h.1v-28.2h8.3v47.6h-8.7l-13.9-30.7h-.1v30.7zM127.7 189.5v-47.6h9.1v19.7h.2l11.8-19.7h9.9l-12.2 19.2 13.6 28.4h-10.2l-9.5-20-3.6 5.5v14.5zM95.5 81.4l23.7 22.8L87.6 95l-7.9 31.9L71.8 95l-31.5 9.2L64 81.4 40.3 58.6l31.5 9.1 7.9-31.9 7.9 31.9 31.6-9.1-23.7 22.8z" fill="#fff"/><path d="M145.8 52.5a25.9 25.9 0 0 0-20.9-16.1A38.3 38.3 0 0 0 52 21.9a35.2 35.2 0 1 0-16.9 66h13.3l6.8-6.5-6.1-5.9h-14a22.7 22.7 0 0 1 0-45.4 22.3 22.3 0 0 1 15.7 6.3l8.2 7.7 2.2-11a25.9 25.9 0 0 1 51.3 5.2c0 1.2-.1 2.4-.2 3.6l-1.2 8.4 8.4-1.4 2.3-.3A13.6 13.6 0 0 1 135 59.4l1 5.2 5.3-.2h.3a5.6 5.6 0 0 1-.1 11.1h-31.2l-6 5.9 6.8 6.5h30.4a18 18 0 0 0 4.3-35.4z" fill="#fff"/></svg>