<svg xmlns="http://www.w3.org/2000/svg" viewBox="0 0 521.9 228"><path d="M42.2 228C16.3 228 0 208.4 0 182.4V45.5C0 19.9 16.3 0 42.2 0c25.9 0 40.5 18.9 40.5 44.5v36.2H61.8V42.2c0-11-6.6-19.3-18.6-19.3-12.6 0-19.3 8.3-19.3 18.9V186c0 11 6.6 18.9 19.3 18.9 12 0 18.6-8 18.6-19.3v-38.9h20.9v36.6c0 25.7-14.6 44.7-40.5 44.7zm61.4-3.4V3.3h23.9v198.4h44.9v22.9h-68.8zm86 0V3.3h24.3v221.3h-24.3zm128.5 3.4c-6.3 0-12-2.3-15.6-6.3-6.6 4.3-14.6 6.3-23.3 6.3-25.9 0-42.5-19.6-42.5-45.5V45.6c0-25.9 16.6-45.5 42.5-45.5s42.5 19.6 42.5 45.5v138.6c0 8.3-2 16.3-5.3 21.6 2.7 2.7 7.6 4.3 14.6 4.3v14.6c-3.3 2.3-6.6 3.3-12.9 3.3zM297.8 41.9c0-10-6.3-18.9-18.6-18.9s-18.6 9-18.6 18.9v144.2c0 10.3 6.3 18.9 18.6 18.9 4.3 0 8-1 11-3l-7.6-7 15.3-13.6-.1-139.5zm88 186.1c-24.3 0-41.9-17.3-41.9-44.5V3.4h23.9v181.4c0 13.6 6 20.6 18.3 20.6s18.3-7 18.3-20.6V3.4h23.3v180.1c-.1 27.2-18 44.5-41.9 44.5zm65.7-3.4V3.3h70.4v22.3h-46.5v73.8H509V121h-33.6v81.4h46.5v22.3l-70.4-.1z" fill="#fff"/></svg>