<svg data-name="Layer 1" xmlns="http://www.w3.org/2000/svg" viewBox="0 0 260 260"><path fill="#f88601" d="M0 0h260v260H0z"/><path d="M54.71 169.24c-8.92 0-14.53-6.75-14.53-15.7v-47.12c0-8.81 5.61-15.66 14.53-15.66s13.94 6.51 13.94 15.32v12.46h-7.2v-13.25c0-3.79-2.27-6.65-6.4-6.65-4.34 0-6.64 2.86-6.64 6.51v49.63c0 3.79 2.27 6.51 6.64 6.51 4.13 0 6.4-2.76 6.4-6.65v-13.38h7.2v12.59c0 8.85-5 15.39-13.94 15.39zm21.13-1.17V91.9h8.23v68.29h15.45v7.88zm29.6 0V91.9h8.37v76.17zm44.23 1.17a7.16 7.16 0 0 1-5.37-2.17 14.5 14.5 0 0 1-8 2.17c-8.91 0-14.63-6.75-14.63-15.66v-47.12c0-8.92 5.72-15.66 14.63-15.66s14.63 6.74 14.63 15.66v47.7a14.75 14.75 0 0 1-1.82 7.44c.93.93 2.61 1.48 5 1.48v5a6.92 6.92 0 0 1-4.44 1.14zm-7-64.06c0-3.44-2.16-6.5-6.4-6.5s-6.4 3.1-6.4 6.5v49.64c0 3.54 2.17 6.5 6.4 6.5a6.69 6.69 0 0 0 3.79-1l-2.62-2.41 5.27-4.68v-48zM173 169.24c-8.36 0-14.42-6-14.42-15.32v-62h8.23v62.44c0 4.68 2.06 7.09 6.3 7.09s6.3-2.41 6.3-7.09V91.93h8v62c0 9.36-6.19 15.32-14.42 15.32zm22.62-1.17V91.9h24.23v7.67h-16V125h11.57v7.44h-11.61v28h16v7.67h-24.23z" fill="#fff"/></svg>