<?xml version="1.0" standalone="no"?>
<!DOCTYPE svg PUBLIC "-//W3C//DTD SVG 20010904//EN"
 "http://www.w3.org/TR/2001/REC-SVG-20010904/DTD/svg10.dtd">
<svg version="1.0" xmlns="http://www.w3.org/2000/svg"
 width="260.000000pt" height="260.000000pt" viewBox="0 0 260.000000 260.000000"
 preserveAspectRatio="xMidYMid meet">
<metadata>
Created by potrace 1.11, written by Peter Selinger 2001-2013
</metadata>
<g transform="translate(0.000000,260.000000) scale(0.100000,-0.100000)"
fill="#000000" stroke="none">
<path d="M0 1300 l0 -1300 1300 0 1300 0 0 1300 0 1300 -1300 0 -1300 0 0
-1300z m621 374 c46 -23 69 -82 69 -181 l0 -83 -40 0 -40 0 0 82 c0 92 -13
118 -61 118 -58 0 -59 -5 -59 -310 0 -304 1 -310 57 -310 50 0 63 24 63 117
l0 83 40 0 40 0 0 -82 c-1 -142 -43 -198 -149 -198 -58 0 -104 32 -127 87 -20
47 -20 559 0 606 23 55 69 87 127 87 28 0 64 -7 80 -16z m830 -11 c58 -49 60
-64 58 -391 -1 -266 0 -297 15 -300 10 -2 16 -14 16 -31 l0 -28 -113 -1 c-129
-1 -162 11 -194 70 -16 30 -18 63 -18 318 0 255 2 288 18 318 41 74 155 98
218 45z m-611 -323 l0 -340 80 0 80 0 0 -40 0 -40 -120 0 -120 0 0 380 0 380
40 0 40 0 0 -340z m300 -40 l0 -380 -45 0 -45 0 0 380 0 380 45 0 45 0 0 -380z
m530 51 c0 -362 0 -361 60 -361 60 0 60 -1 60 361 l0 329 45 0 45 0 0 -312 c0
-189 -4 -328 -11 -351 -5 -21 -23 -52 -39 -70 -27 -30 -32 -32 -99 -32 -63 0
-73 3 -99 28 -48 46 -52 77 -52 421 l0 316 45 0 45 0 0 -329z m530 289 l0 -40
-80 0 -80 0 0 -125 0 -125 61 0 60 0 -3 -37 -3 -38 -57 -3 -58 -3 0 -134 0
-135 80 0 80 0 0 -40 0 -40 -125 0 -125 0 0 380 0 380 125 0 125 0 0 -40z"/>
<path d="M1316 1588 c-14 -19 -16 -64 -16 -288 0 -296 3 -310 61 -310 25 0 29
3 25 18 -4 12 1 26 14 37 19 17 20 30 20 276 0 221 -2 260 -16 273 -23 24 -70
20 -88 -6z"/>
</g>
</svg>
