<svg xmlns="http://www.w3.org/2000/svg" viewBox="0 0 139.6 30.6"><path d="M132.8 30.1V17.5c0-2.7-1.4-3.6-3.5-3.6a5.2 5.2 0 0 0-4.2 2.1v14.1h-6.8V8.3h6.8V11a9.5 9.5 0 0 1 7.5-3.3c4.8 0 7 2.9 7 7v15.4zm-27 .5c-5.5 0-9.4-3-10.9-7.2 0 4.1-3.6 7.1-9.7 7.1-3.9 0-7.8-1.3-10.1-3.4l2.8-4.9a13.8 13.8 0 0 0 7.6 3c2 0 2.9-.6 2.9-1.5 0-2.7-12.5.1-12.5-8.8 0-3.8 3.3-7.2 9.2-7.2a15.1 15.1 0 0 1 9 2.9l-2.7 5a9.1 9.1 0 0 0-6.3-2.4c-1.6 0-2.6.6-2.6 1.5s9.1.5 11.7 5.6v-1.1c0-6.2 4.3-11.5 11.6-11.5s11.7 5.3 11.7 11.5-4.3 11.4-11.7 11.4zm0-16.7c-2.9 0-4.6 2.4-4.6 5.3s1.7 5.3 4.6 5.3 4.7-2.4 4.7-5.3-1.7-5.3-4.7-5.3zM68 0h6.8v30.1H68zM57.6 25a9.1 9.1 0 0 0 5.2-1.8l3 4.5c-2.1 2-5.7 2.9-9 2.9-6.6 0-11.7-4.4-11.7-11.4A11.2 11.2 0 0 1 56.5 7.7c6.4 0 11 4.8 11 12.2v1.6H52.2c.5 1.9 2.3 3.5 5.4 3.5zm3.4-8.3c-.2-1.5-1.3-3.4-4.5-3.4s-4.1 1.8-4.4 3.4zM37.6 27.6a8.4 8.4 0 0 1-6.4 3c-5.3 0-9.5-4-9.5-11.4s4.1-11.4 9.5-11.4a7.8 7.8 0 0 1 6.4 3.1V0h6.8v30.1h-6.8zm0-11.8a5.9 5.9 0 0 0-4.2-1.9c-2.7 0-4.7 2-4.7 5.3s2 5.3 4.7 5.3a5.6 5.6 0 0 0 4.2-2zM0 0h21.7v6.8h-14v4.6h13.7v6.8H7.7v5.1h14v6.8H0z" fill="#fff"/></svg>