<svg xmlns="http://www.w3.org/2000/svg" viewBox="0 0 321.2 75.7"><title>aligned-logo</title><path d="M115.3,39.6h-2.5c-8.1,0-13,3.2-13,8.1s3.7,7.8,7.7,7.8,6.1-2.5,7.8-4.9Zm3.2,18.7-2.8-3.6h-.4c-1.7,2-5.3,4.4-11.4,4.4-4.5,0-11.8-2.4-11.8-11.4s9.7-11.4,20.7-11.4h2.5c0-11.4-3.7-13.8-8.6-13.8s-7.7,1.6-8.9,6.9H94.1c0-2.8,0-5.3,2-7.3s7.4-2.9,12.2-2.9c7.4,0,14.3,2.5,14.3,17.1v22Z" style="fill:#fff"/><path d="M139.9,58.3h-7.4v-44c0-4.8-.8-8.1-5.7-8.1h-1.6V4.6h7.3c5.7,0,7.4,1.6,7.4,9.7Z" style="fill:#fff"/><path d="M156,15.2c-2.5,0-4.6-2.5-4.6-5.3a3.5,3.5,0,0,1,3.8-3.6c2.5,0,4.5,2.4,4.5,5.2a3.4,3.4,0,0,1-3.7,3.7m4.2,43.1h-7.3V29.8c0-4.9-.8-8.1-5.7-8.1h-1.6V20h7.3c5.7,0,7.3,1.7,7.3,9.8Z" style="fill:#fff"/><path d="M184.5,22.1c-4.5,0-8.2,2.4-8.2,9.3s3.7,9.4,8.2,9.4,8.1-2.4,8.1-9.4-3.6-9.3-8.1-9.3m-3.7,30.1c-4.1,1.6-6.9,4.5-6.9,9.8s4.5,9.3,10.6,9.3,10.6-2.8,10.6-9.3-3.3-8.6-9.8-9.4Zm3.7-33h15v2.1l-5.2.8v.4a10.1,10.1,0,0,1,5.7,8.9c0,9.4-7,12.3-15.5,12.3-5.7,0-8.6.8-8.6,2.8s2.9,2.9,8.6,2.9c9.8,0,17.9,3.6,17.9,12.6s-7.7,12.6-17.9,12.6S166.6,71.3,166.6,62c0-5.3,4-9,8.9-10.6a5.4,5.4,0,0,1-3.2-4.9,5.3,5.3,0,0,1,2.8-4.5A11.6,11.6,0,0,1,169,31.4c0-9.3,6.9-12.2,15.5-12.2" style="fill:#fff"/><path d="M210.5,29.8c0-4.9-.8-8.1-5.7-8.1h-1.6V20h7.3c4.1,0,6.2,1.3,7,3.3h.4a15.1,15.1,0,0,1,10.6-4.1c6.9,0,13.8,2.9,13.8,14.7V58.3H235V33.9c0-8.2-4.5-11-9-11s-6.1,2-8.1,4.3V58.3h-7.4Z" style="fill:#fff"/><path d="M273.6,37.1c0-8.9-2.9-14.2-8.6-14.2s-8.5,6.1-8.5,14.2Zm7.1,3.3H256.5c0,9,4,15.5,11,15.5,5.3,0,8.5-2.5,11.4-6.5l1.6,1.2c-3.7,6.1-8.6,8.5-14.7,8.5-11.4,0-17.1-8.9-17.1-19.9s5.7-20,15.9-20,16.3,6.5,16.3,17.9Z" style="fill:#fff"/><path d="M313.1,24.9c-2.5-1.2-5.3-2.4-7.8-2.4-7.3,0-10.1,7.3-10.1,16.7s2.8,16.7,9.3,16.7c4.9,0,6.9-2.5,8.6-4.9Zm7.3,33.4h-4.1l-2.8-3.6h-.4c-1.7,2-4.5,4.4-11,4.4-9.8,0-14.7-8.9-14.7-19.9s4.9-20,15.5-20a22.4,22.4,0,0,1,10.2,2.5V14.3c0-4.8-.8-8.1-5.7-8.1h-1.7V4.6h7.4c5.7,0,7.3,1.6,7.3,9.7Z" style="fill:#fff"/><polygon points="209.7 73.7 211.1 64.1 211.2 64.1 215.2 72 219 64.1 219.2 64.1 220.6 73.7 219.6 73.7 218.7 66.9 215.3 73.7 215 73.7 211.6 66.8 210.6 73.7 209.7 73.7" style="fill:#fff"/><path d="M227.4,64.8a3.6,3.6,0,0,0-2,.6,2.8,2.8,0,0,0-1.5,1.5,3.7,3.7,0,0,0-.6,2.1,4.1,4.1,0,0,0,4.1,4.1,4.2,4.2,0,0,0,2.1-.6A4.3,4.3,0,0,0,231,71a4.6,4.6,0,0,0,.5-2.1,4.6,4.6,0,0,0-.5-2,3.6,3.6,0,0,0-1.5-1.5,4.2,4.2,0,0,0-2.1-.6m0-.9a5.2,5.2,0,0,1,3.6,1.4,5.1,5.1,0,1,1-7.2,7.2,4.6,4.6,0,0,1-1.4-3.5,5.8,5.8,0,0,1,.6-2.6,4.7,4.7,0,0,1,1.9-1.8,4.3,4.3,0,0,1,2.5-.7" style="fill:#fff"/><path d="M235.7,72.8h1.1a9.1,9.1,0,0,0,2.7-.2,2.8,2.8,0,0,0,1.7-1.3,3.2,3.2,0,0,0,.7-2.2,4.5,4.5,0,0,0-.7-2.4,3.8,3.8,0,0,0-1.9-1.4l-3-.2h-.6Zm-1,.9V64.1h2a8.5,8.5,0,0,1,3.2.4,4.6,4.6,0,0,1,2.2,1.7,5.2,5.2,0,0,1,.7,2.9,5.1,5.1,0,0,1-.6,2.5,3.5,3.5,0,0,1-1.6,1.6,5.6,5.6,0,0,1-2.8.5Z" style="fill:#fff"/><polygon points="245 64.1 250.5 64.1 250.5 65.1 246 65.1 246 68.1 250.5 68.1 250.5 69 246 69 246 72.8 250.5 72.8 250.5 73.7 245 73.7 245 64.1" style="fill:#fff"/><path d="M253.5,65.1v3.2h1.7l1.4-.2c.3-.2.6-.3.7-.6a1.5,1.5,0,0,0,0-1.8c-.1-.3-.4-.4-.6-.6h-3.2Zm-.9-1h1.9l2.2.2a2.9,2.9,0,0,1,1.4.8,2.8,2.8,0,0,1,.5,1.6,2.3,2.3,0,0,1-.4,1.4,2.2,2.2,0,0,1-1,.9,5,5,0,0,1-1.9.3l3.4,4.4h-1.2l-3.4-4.4h-.6v4.4h-.9Z" style="fill:#fff"/><polygon points="261 73.7 261 64.1 261.2 64.1 267.6 71.5 267.6 64.1 268.6 64.1 268.6 73.7 268.3 73.7 262 66.5 262 73.7 261 73.7" style="fill:#fff"/><polygon points="275.2 64.1 276.2 64.1 276.2 68.2 281.1 68.2 281.1 64.1 282.1 64.1 282.1 73.7 281.1 73.7 281.1 69.1 276.2 69.1 276.2 73.7 275.2 73.7 275.2 64.1" style="fill:#fff"/><polygon points="284.7 64.1 290.2 64.1 290.2 65.1 285.7 65.1 285.7 68.1 290.2 68.1 290.2 69 285.7 69 285.7 72.8 290.2 72.8 290.2 73.7 284.7 73.7 284.7 64.1" style="fill:#fff"/><path d="M296,66.2l-1.6,3.5h3.3Zm.1-2.1,4.5,9.6h-1l-1.5-3.1h-4.2l-1.5,3.1h-1l4.5-9.6Z" style="fill:#fff"/><polygon points="302.4 64.1 303.4 64.1 303.4 72.8 307.1 72.8 307.1 73.7 302.4 73.7 302.4 64.1" style="fill:#fff"/><polygon points="307.4 65.1 307.4 64.1 312.7 64.1 312.7 65.1 310.5 65.1 310.5 73.7 309.5 73.7 309.5 65.1 307.4 65.1" style="fill:#fff"/><polygon points="314.4 64.1 315.3 64.1 315.3 68.2 320.2 68.2 320.2 64.1 321.2 64.1 321.2 73.7 320.2 73.7 320.2 69.1 315.3 69.1 315.3 73.7 314.4 73.7 314.4 64.1" style="fill:#fff"/><path d="M37.8,0A37.9,37.9,0,1,0,75.7,37.8,37.8,37.8,0,0,0,37.8,0ZM52,69s-5.6,3.7-9.3,1.5a10.8,10.8,0,0,0-9.6-.1c-3,1.4-5.6,1.8-9.6-1.2,0,0-26-18.3-16.4-46.8,0,0,4-14.3,23-10.3a25.2,25.2,0,0,0,6.2,1.1,8.8,8.8,0,0,0-4.4-6.4,1.9,1.9,0,0,1-.6-2.5,2.1,2.1,0,0,1,2.9-.6c.3.2,4.5,2.6,4.7,9.5a18.9,18.9,0,0,0,5.1-.7c8.5-2.2,18.5-3.7,24.4,9.9S68.3,57.5,52,69Z" style="fill:#fff"/><path d="M31.5,55.2c.1,4.4,12.6.2,12.6.2s-5.7-2.1-9.5-2.1c-1.8,0-3.1.5-3.1,1.9M44.1,50c0-1.5-1.5-2-3.4-2-3.8,0-9.2,1.8-9.2,1.8s12.6,4.5,12.6.2M31.5,44.5c.1,4.3,12.6.2,12.6.2s-5.7-2.1-9.5-2.1c-1.8,0-3.1.5-3.1,1.9M44.1,28c0-1.5-1.5-2-3.4-2-3.7,0-9.2,1.8-9.2,1.8s12.6,4.5,12.6.2M31.5,33.2c.1,4.4,12.6.2,12.6.2s-5.7-2-9.5-2c-1.8,0-3.1.4-3.1,1.8m0,5.3s5.4-1.8,9.2-1.8c1.9,0,3.4.5,3.4,2,0,4.3-12.6-.2-12.6-.2" style="fill:#fff"/></svg>