<svg xmlns="http://www.w3.org/2000/svg" viewBox="0 0 245.3 46.8"><path d="M44.4 11.8L25.3 44.7s9.4-14.7 18.5-15 19.6 15.1 19.6 15.1l-18.9-33z" fill="#66ab45" stroke="#66ab45" stroke-linejoin="round" stroke-width="2.476"/><circle cx="44.4" cy="41.7" r="5" fill="#66ab45"/><path d="M20.3 35.5L39.4 2.6s-9.4 14.8-18.5 15S1.2 2.5 1.2 2.5l19 33z" fill="#ee7623" stroke="#ee7623" stroke-linejoin="round" stroke-width="2.476"/><circle cx="18.8" cy="5.6" r="5" fill="#ee7623"/><path d="M68.4 35.5L49.3 2.6s9.4 14.8 18.5 15S87.5 2.5 87.5 2.5l-19 33z" fill="#26bcd7" stroke="#26bcd7" stroke-linejoin="round" stroke-width="2.476"/><circle cx="69.9" cy="5.6" r="5" fill="#26bcd7"/><path d="M101.3 45.6V1.2h10.8v44.4zM148.8 45.6L131 16.5h-.2l.2 29.1h-10.4V1.2h12.2l17.8 29h.2l-.2-29H161v44.4zM201.3 44.8a24.1 24.1 0 0 1-10 2 26.7 26.7 0 0 1-9.5-1.7 24.1 24.1 0 0 1-7.5-4.8 21.5 21.5 0 0 1-5-7.5 22.4 22.4 0 0 1-1.9-9.5 24.5 24.5 0 0 1 1.9-9.6 20.4 20.4 0 0 1 5.1-7.4 23.7 23.7 0 0 1 7.6-4.7 27.1 27.1 0 0 1 9.5-1.6 27.7 27.7 0 0 1 9.3 1.7 17.9 17.9 0 0 1 7.3 4.8l-7.2 7.3a10.1 10.1 0 0 0-4-3.1 14.4 14.4 0 0 0-5-1 12.7 12.7 0 0 0-5.2 1.1 10.4 10.4 0 0 0-4 2.8 12.6 12.6 0 0 0-2.7 4.3 15.7 15.7 0 0 0-.9 5.4 15.9 15.9 0 0 0 .9 5.5 14.1 14.1 0 0 0 2.6 4.3 11.2 11.2 0 0 0 4 2.8 13.6 13.6 0 0 0 10.7-.2 12.3 12.3 0 0 0 3.8-3.3l7.5 7a20.8 20.8 0 0 1-7.3 5.4zM238.5 12.7a12.5 12.5 0 0 0-3.6-2.8 10.3 10.3 0 0 0-4.3-1l-2.2.2a6.8 6.8 0 0 0-2 .7 4.7 4.7 0 0 0-1.4 1.4 3.8 3.8 0 0 0-.6 2.2 3.4 3.4 0 0 0 .4 1.8 3.5 3.5 0 0 0 1.4 1.3 9 9 0 0 0 2.2 1.1l2.8 1 4.7 1.6a17 17 0 0 1 4.4 2.4 12.4 12.4 0 0 1 3.4 3.8 11.2 11.2 0 0 1 1.3 5.5 14.6 14.6 0 0 1-1.4 6.6 13.2 13.2 0 0 1-3.8 4.6 16.6 16.6 0 0 1-5.5 2.7 21.8 21.8 0 0 1-6.3.9 25.9 25.9 0 0 1-9.2-1.7 18.1 18.1 0 0 1-7.4-4.7l7-7.1a13.3 13.3 0 0 0 4.3 3.3 11.7 11.7 0 0 0 5.3 1.4 8.5 8.5 0 0 0 2.3-.3 6 6 0 0 0 2-.8 3.7 3.7 0 0 0 1.3-1.5 4.1 4.1 0 0 0 .5-2.3 3.7 3.7 0 0 0-.6-2.1 5.7 5.7 0 0 0-1.8-1.6 11.3 11.3 0 0 0-2.9-1.3l-3.9-1.3-4.1-1.6a19.6 19.6 0 0 1-3.7-2.4 13.8 13.8 0 0 1-2.6-3.6 12.9 12.9 0 0 1-.9-5.1 12.9 12.9 0 0 1 1.5-6.4 14.5 14.5 0 0 1 3.9-4.3 21.1 21.1 0 0 1 5.5-2.5 27 27 0 0 1 6.3-.7 22.9 22.9 0 0 1 7.6 1.3 21.8 21.8 0 0 1 6.9 4.1z" fill="#00539b"/></svg>